<svg width="304.0800048828125px" height="128.039990234375px" xmlns="http://www.w3.org/2000/svg" viewBox="97.95999755859376 10.980004882812494 304.0800048828125 128.039990234375" style="background: rgba(0, 0, 0, 0) none repeat scroll 0% 0%;" preserveAspectRatio="xMidYMid"><defs><filter id="editing-hole" x="-100%" y="-100%" width="300%" height="300%"><feFlood flood-color="#000" result="black"></feFlood><feMorphology operator="dilate" radius="2" in="SourceGraphic" result="erode"></feMorphology><feGaussianBlur in="erode" stdDeviation="4" result="blur"></feGaussianBlur><feOffset in="blur" dx="2" dy="2" result="offset"></feOffset><feComposite operator="atop" in="offset" in2="black" result="merge"></feComposite><feComposite operator="in" in="merge" in2="SourceGraphic" result="inner-shadow"></feComposite></filter></defs><g filter="url(#editing-hole)"><g transform="translate(146.08008575439453, 106.21875)"><path d="M8.66 0L4.78 0L10.59-13.59L10.59-13.59Q8.81-13.69 7.61-14.14L7.61-14.14L7.61-14.14Q6.41-14.59 5.67-15.27L5.67-15.27L5.67-15.27Q4.94-15.94 4.63-16.75L4.63-16.75L4.63-16.75Q4.31-17.56 4.31-18.41L4.31-18.41L4.31-18.41Q4.31-20 5.03-21L5.03-21L5.03-21Q5.75-22 6.77-22.59L6.77-22.59L6.77-22.59Q7.78-23.19 8.91-23.41L8.91-23.41L8.91-23.41Q10.03-23.63 10.84-23.63L10.84-23.63L10.84-23.63Q12.88-23.63 14.63-23.06L14.63-23.06L18-30.91L18-30.91Q18.69-32.56 19.41-34.23L19.41-34.23L19.41-34.23Q20.13-35.91 20.69-37.42L20.69-37.42L20.69-37.42Q21.25-38.94 21.61-40.22L21.61-40.22L21.61-40.22Q21.97-41.50 21.97-42.38L21.97-42.38L21.97-42.38Q21.97-42.94 21.73-43.30L21.73-43.30L21.73-43.30Q21.50-43.66 21.03-43.66L21.03-43.66L21.03-43.66Q18.81-43.31 15.94-41.53L15.94-41.53L15.94-41.53Q14.72-40.78 13.23-39.63L13.23-39.63L13.23-39.63Q11.75-38.47 10.02-36.80L10.02-36.80L10.02-36.80Q8.28-35.13 6.33-32.89L6.33-32.89L6.33-32.89Q4.38-30.66 2.22-27.72L2.22-27.72L1.56-31.94L1.56-31.94Q4.59-35.06 7.55-37.45L7.55-37.45L7.55-37.45Q10.50-39.84 13.14-41.48L13.14-41.48L13.14-41.48Q15.78-43.13 17.95-43.97L17.95-43.97L17.95-43.97Q20.13-44.81 21.59-44.81L21.59-44.81L21.59-44.81Q23.34-44.81 24.09-43.77L24.09-43.77L24.09-43.77Q24.84-42.72 24.84-41.09L24.84-41.09L24.84-41.09Q24.84-40.03 24.59-38.80L24.59-38.80L24.59-38.80Q24.34-37.56 23.95-36.23L23.95-36.23L23.95-36.23Q23.56-34.91 23.05-33.55L23.05-33.55L23.05-33.55Q22.53-32.19 21.97-30.91L21.97-30.91L17.88-21.41L17.88-21.41Q19.16-20.50 20.17-19.23L20.17-19.23L20.17-19.23Q21.19-17.97 22-16.38L22-16.38L29.84-16.38L41.28-43.66L45.22-43.66L33.78-16.38L37-16.38L35.75-13.59L32.63-13.59L26.94 0L22.97 0L23-0.06L23-0.06Q23.06-1.09 23.09-2.05L23.09-2.05L23.09-2.05Q23.13-3 23.13-3.91L23.13-3.91L23.13-3.91Q23.13-6.84 22.80-9.23L22.80-9.23L22.80-9.23Q22.47-11.63 21.84-13.59L21.84-13.59L14.50-13.59L8.66 0ZM6.16-19.19L6.16-19.19L6.16-19.19Q6.16-18.69 6.39-18.19L6.39-18.19L6.39-18.19Q6.63-17.69 7.13-17.28L7.13-17.28L7.13-17.28Q7.63-16.88 8.39-16.63L8.39-16.63L8.39-16.63Q9.16-16.38 10.25-16.38L10.25-16.38L11.78-16.38L14.16-21.91L14.16-21.91Q12.53-22.41 10.59-22.41L10.59-22.41L10.59-22.41Q8.53-22.41 7.34-21.50L7.34-21.50L7.34-21.50Q6.16-20.59 6.16-19.19ZM24.41-4.59L24.41-4.59L24.41-4.59Q24.41-4.28 24.41-4L24.41-4L24.41-4Q24.41-3.72 24.38-3.41L24.38-3.41L28.66-13.59L23.13-13.59L23.13-13.59Q24.41-9.59 24.41-4.59ZM15.72-16.38L20.66-16.38L20.66-16.38Q19.34-18.88 17.41-20.28L17.41-20.28L15.72-16.38ZM43.13-1.25L43.13-1.25L43.13-1.25Q44.25-1.25 45.58-1.75L45.58-1.75L45.58-1.75Q46.91-2.25 48.58-3.47L48.58-3.47L48.58-3.47Q50.25-4.69 52.28-6.77L52.28-6.77L52.28-6.77Q54.31-8.84 56.84-12L56.84-12L57.63-11.38L57.63-11.38Q55.47-8.63 53.66-6.70L53.66-6.70L53.66-6.70Q51.84-4.78 50.34-3.52L50.34-3.52L50.34-3.52Q48.84-2.25 47.64-1.55L47.64-1.55L47.64-1.55Q46.44-0.84 45.50-0.50L45.50-0.50L45.50-0.50Q44.56-0.16 43.84-0.08L43.84-0.08L43.84-0.08Q43.13 0 42.63 0L42.63 0L42.63 0Q41.88 0 40.94-0.22L40.94-0.22L40.94-0.22Q40-0.44 39.19-1.02L39.19-1.02L39.19-1.02Q38.38-1.59 37.83-2.59L37.83-2.59L37.83-2.59Q37.28-3.59 37.28-5.19L37.28-5.19L37.28-5.19Q37.28-7.53 38.05-9.72L38.05-9.72L38.05-9.72Q38.81-11.91 40.06-13.83L40.06-13.83L40.06-13.83Q41.31-15.75 42.89-17.34L42.89-17.34L42.89-17.34Q44.47-18.94 46.11-20.08L46.11-20.08L46.11-20.08Q47.75-21.22 49.28-21.84L49.28-21.84L49.28-21.84Q50.81-22.47 51.97-22.47L51.97-22.47L51.97-22.47Q53.63-22.47 54.36-21.48L54.36-21.48L54.36-21.48Q55.09-20.50 55.09-18.97L55.09-18.97L55.09-18.97Q55.09-17.56 54.47-16.25L54.47-16.25L54.47-16.25Q53.84-14.94 52.81-13.77L52.81-13.77L52.81-13.77Q51.78-12.59 50.42-11.61L50.42-11.61L50.42-11.61Q49.06-10.63 47.58-9.92L47.58-9.92L47.58-9.92Q46.09-9.22 44.58-8.81L44.58-8.81L44.58-8.81Q43.06-8.41 41.75-8.41L41.75-8.41L41.75-8.41Q41.34-7.22 41.11-6.16L41.11-6.16L41.11-6.16Q40.88-5.09 40.88-4.19L40.88-4.19L40.88-4.19Q40.88-2.50 41.53-1.88L41.53-1.88L41.53-1.88Q42.19-1.25 43.13-1.25ZM50.94-21.19L50.94-21.19L50.94-21.19Q50.09-21.19 48.91-20.11L48.91-20.11L48.91-20.11Q47.72-19.03 46.45-17.31L46.45-17.31L46.45-17.31Q45.19-15.59 44.02-13.48L44.02-13.48L44.02-13.48Q42.84-11.38 42.06-9.28L42.06-9.28L42.06-9.28Q44.28-9.66 46.11-10.80L46.11-10.80L46.11-10.80Q47.94-11.94 49.23-13.45L49.23-13.45L49.23-13.45Q50.53-14.97 51.23-16.66L51.23-16.66L51.23-16.66Q51.94-18.34 51.94-19.75L51.94-19.75L51.94-19.75Q51.94-20.59 51.66-20.89L51.66-20.89L51.66-20.89Q51.38-21.19 50.94-21.19ZM75.50-38.09L61.69-5.31L61.69-5.31Q61.56-5 61.47-4.70L61.47-4.70L61.47-4.70Q61.38-4.41 61.38-4.19L61.38-4.19L61.38-4.19Q61.38-3.81 61.55-3.69L61.55-3.69L61.55-3.69Q61.72-3.56 62-3.56L62-3.56L62-3.56Q62.44-3.56 63.06-4L63.06-4L63.06-4Q63.69-4.44 64.38-5.28L64.38-5.28L70.09-12.34L70.88-11.72L63.97-3.19L63.97-3.19Q63.22-2.25 62.61-1.63L62.61-1.63L62.61-1.63Q62-1 61.45-0.64L61.45-0.64L61.45-0.64Q60.91-0.28 60.36-0.13L60.36-0.13L60.36-0.13Q59.81 0.03 59.22 0.03L59.22 0.03L59.22 0.03Q58.28 0.03 57.66-0.52L57.66-0.52L57.66-0.52Q57.03-1.06 57.03-1.91L57.03-1.91L57.03-1.91Q57.03-2.69 57.42-3.75L57.42-3.75L57.42-3.75Q57.81-4.81 58.44-6.34L58.44-6.34L64.34-20.44L64.34-20.44Q63.84-19.66 63.19-18.69L63.19-18.69L63.19-18.69Q62.53-17.72 61.61-16.50L61.61-16.50L61.61-16.50Q60.69-15.28 59.52-13.77L59.52-13.77L59.52-13.77Q58.34-12.25 56.81-10.38L56.81-10.38L56.03-11L56.03-11Q58.19-13.66 59.78-15.77L59.78-15.77L59.78-15.77Q61.38-17.88 62.53-19.56L62.53-19.56L62.53-19.56Q63.69-21.25 64.50-22.59L64.50-22.59L64.50-22.59Q65.31-23.94 65.94-25.13L65.94-25.13L65.94-25.13Q66.56-26.31 67.08-27.39L67.08-27.39L67.08-27.39Q67.59-28.47 68.19-29.63L68.19-29.63L71.75-38.09L75.50-38.09ZM73.28-8.97L77-17.91L77-17.91Q77.09-18.13 77.09-18.25L77.09-18.25L77.09-18.25Q77.09-18.44 76.98-18.52L76.98-18.52L76.98-18.52Q76.88-18.59 76.72-18.59L76.72-18.59L76.72-18.59Q76.41-18.59 76.16-18.25L76.16-18.25L69.97-10.59L69.19-11.22L76.22-19.91L76.22-19.91Q77.03-20.91 77.92-21.67L77.92-21.67L77.92-21.67Q78.81-22.44 79.78-22.44L79.78-22.44L79.78-22.44Q80.69-22.44 81.09-21.95L81.09-21.95L81.09-21.95Q81.50-21.47 81.50-20.88L81.50-20.88L81.50-20.88Q81.50-20.28 81.28-19.53L81.28-19.53L81.28-19.53Q81.06-18.78 80.72-17.97L80.72-17.97L75.91-6.03L75.91-6.03Q75.47-4.94 75.19-4.05L75.19-4.05L75.19-4.05Q74.91-3.16 74.91-2.47L74.91-2.47L74.91-2.47Q74.91-2 75.16-1.70L75.16-1.70L75.16-1.70Q75.41-1.41 75.84-1.41L75.84-1.41L75.84-1.41Q76.38-1.41 77.19-1.95L77.19-1.95L77.19-1.95Q78-2.50 78.97-3.44L78.97-3.44L78.97-3.44Q79.94-4.38 81.02-5.63L81.02-5.63L81.02-5.63Q82.09-6.88 83.19-8.28L83.19-8.28L83.19-8.28Q82.66-9.06 82.41-10.13L82.41-10.13L82.41-10.13Q82.16-11.19 82.16-12.50L82.16-12.50L82.16-12.50Q82.16-14.38 82.81-16.17L82.81-16.17L82.81-16.17Q83.47-17.97 84.52-19.41L84.52-19.41L84.52-19.41Q85.56-20.84 86.86-21.72L86.86-21.72L86.86-21.72Q88.16-22.59 89.44-22.59L89.44-22.59L89.44-22.59Q90.66-22.59 91.36-21.81L91.36-21.81L91.36-21.81Q92.06-21.03 92.06-19.44L92.06-19.44L92.06-19.44Q92.06-18.16 91.59-16.69L91.59-16.69L91.59-16.69Q91.13-15.22 90.33-13.69L90.33-13.69L90.33-13.69Q89.53-12.16 88.42-10.59L88.42-10.59L88.42-10.59Q87.31-9.03 86.06-7.59L86.06-7.59L86.06-7.59Q86.44-7.50 86.91-7.50L86.91-7.50L86.91-7.50Q87.75-7.50 88.53-7.64L88.53-7.64L88.53-7.64Q89.31-7.78 90.16-8.25L90.16-8.25L90.16-8.25Q91-8.72 91.95-9.61L91.95-9.61L91.95-9.61Q92.91-10.50 94.09-11.97L94.09-11.97L94.84-11.31L94.84-11.31Q93.72-9.84 92.72-8.91L92.72-8.91L92.72-8.91Q91.72-7.97 90.77-7.44L90.77-7.44L90.77-7.44Q89.81-6.91 88.88-6.69L88.88-6.69L88.88-6.69Q87.94-6.47 86.94-6.47L86.94-6.47L86.94-6.47Q85.97-6.47 85.28-6.69L85.28-6.69L85.28-6.69Q83.94-5.22 82.48-3.97L82.48-3.97L82.48-3.97Q81.03-2.72 79.63-1.80L79.63-1.80L79.63-1.80Q78.22-0.88 76.92-0.34L76.92-0.34L76.92-0.34Q75.63 0.19 74.56 0.19L74.56 0.19L74.56 0.19Q73.28 0.19 72.53-0.64L72.53-0.64L72.53-0.64Q71.78-1.47 71.78-3.16L71.78-3.16L71.78-3.16Q71.78-4.25 72.17-5.75L72.17-5.75L72.17-5.75Q72.56-7.25 73.28-8.97L73.28-8.97ZM83.38-12.56L83.38-12.56L83.38-12.56Q83.38-10.53 83.97-9.31L83.97-9.31L83.97-9.31Q85.03-10.81 86.02-12.36L86.02-12.36L86.02-12.36Q87-13.91 87.72-15.33L87.72-15.33L87.72-15.33Q88.44-16.75 88.88-17.98L88.88-17.98L88.88-17.98Q89.31-19.22 89.31-20.09L89.31-20.09L89.31-20.09Q89.31-20.50 89.19-20.86L89.19-20.86L89.19-20.86Q89.06-21.22 88.56-21.22L88.56-21.22L88.56-21.22Q88-21.22 87.11-20.55L87.11-20.55L87.11-20.55Q86.22-19.88 85.39-18.70L85.39-18.70L85.39-18.70Q84.56-17.53 83.97-15.95L83.97-15.95L83.97-15.95Q83.38-14.38 83.38-12.56ZM98.31-1.25L98.31-1.25L98.31-1.25Q99.44-1.25 100.77-1.75L100.77-1.75L100.77-1.75Q102.09-2.25 103.77-3.47L103.77-3.47L103.77-3.47Q105.44-4.69 107.47-6.77L107.47-6.77L107.47-6.77Q109.50-8.84 112.03-12L112.03-12L112.81-11.38L112.81-11.38Q110.66-8.63 108.84-6.70L108.84-6.70L108.84-6.70Q107.03-4.78 105.53-3.52L105.53-3.52L105.53-3.52Q104.03-2.25 102.83-1.55L102.83-1.55L102.83-1.55Q101.63-0.84 100.69-0.50L100.69-0.50L100.69-0.50Q99.75-0.16 99.03-0.08L99.03-0.08L99.03-0.08Q98.31 0 97.81 0L97.81 0L97.81 0Q97.06 0 96.13-0.22L96.13-0.22L96.13-0.22Q95.19-0.44 94.38-1.02L94.38-1.02L94.38-1.02Q93.56-1.59 93.02-2.59L93.02-2.59L93.02-2.59Q92.47-3.59 92.47-5.19L92.47-5.19L92.47-5.19Q92.47-7.53 93.23-9.72L93.23-9.72L93.23-9.72Q94-11.91 95.25-13.83L95.25-13.83L95.25-13.83Q96.50-15.75 98.08-17.34L98.08-17.34L98.08-17.34Q99.66-18.94 101.30-20.08L101.30-20.08L101.30-20.08Q102.94-21.22 104.47-21.84L104.47-21.84L104.47-21.84Q106-22.47 107.16-22.47L107.16-22.47L107.16-22.47Q108.81-22.47 109.55-21.48L109.55-21.48L109.55-21.48Q110.28-20.50 110.28-18.97L110.28-18.97L110.28-18.97Q110.28-17.56 109.66-16.25L109.66-16.25L109.66-16.25Q109.03-14.94 108-13.77L108-13.77L108-13.77Q106.97-12.59 105.61-11.61L105.61-11.61L105.61-11.61Q104.25-10.63 102.77-9.92L102.77-9.92L102.77-9.92Q101.28-9.22 99.77-8.81L99.77-8.81L99.77-8.81Q98.25-8.41 96.94-8.41L96.94-8.41L96.94-8.41Q96.53-7.22 96.30-6.16L96.30-6.16L96.30-6.16Q96.06-5.09 96.06-4.19L96.06-4.19L96.06-4.19Q96.06-2.50 96.72-1.88L96.72-1.88L96.72-1.88Q97.38-1.25 98.31-1.25ZM106.13-21.19L106.13-21.19L106.13-21.19Q105.28-21.19 104.09-20.11L104.09-20.11L104.09-20.11Q102.91-19.03 101.64-17.31L101.64-17.31L101.64-17.31Q100.38-15.59 99.20-13.48L99.20-13.48L99.20-13.48Q98.03-11.38 97.25-9.28L97.25-9.28L97.25-9.28Q99.47-9.66 101.30-10.80L101.30-10.80L101.30-10.80Q103.13-11.94 104.42-13.45L104.42-13.45L104.42-13.45Q105.72-14.97 106.42-16.66L106.42-16.66L106.42-16.66Q107.13-18.34 107.13-19.75L107.13-19.75L107.13-19.75Q107.13-20.59 106.84-20.89L106.84-20.89L106.84-20.89Q106.56-21.19 106.13-21.19ZM133.97-12.03L134.75-11.41L134.75-11.41Q133.25-9.53 131.88-7.97L131.88-7.97L131.88-7.97Q130.50-6.41 129.14-5.05L129.14-5.05L129.14-5.05Q127.78-3.69 126.41-2.47L126.41-2.47L126.41-2.47Q125.03-1.25 123.53 0L123.53 0L120.53 7.22L120.53 7.22Q119.53 9.63 118.48 11.56L118.48 11.56L118.48 11.56Q117.44 13.50 116.25 14.84L116.25 14.84L116.25 14.84Q115.06 16.19 113.69 16.91L113.69 16.91L113.69 16.91Q112.31 17.63 110.66 17.63L110.66 17.63L110.66 17.63Q109.56 17.63 108.81 17.27L108.81 17.27L108.81 17.27Q108.06 16.91 107.59 16.34L107.59 16.34L107.59 16.34Q107.13 15.78 106.92 15.09L106.92 15.09L106.92 15.09Q106.72 14.41 106.72 13.78L106.72 13.78L106.72 13.78Q106.72 11.72 107.88 9.98L107.88 9.98L107.88 9.98Q109.03 8.25 110.89 6.66L110.89 6.66L110.89 6.66Q112.75 5.06 115.05 3.48L115.05 3.48L115.05 3.48Q117.34 1.91 119.66 0.13L119.66 0.13L125.78-14.63L125.78-14.63Q125.97-15.09 125.97-15.19L125.97-15.19L125.97-15.19Q125.97-15.50 125.75-15.50L125.75-15.50L125.75-15.50Q125.47-15.50 125.16-15.03L125.16-15.03L125.16-15.03Q124.97-14.78 124.41-13.97L124.41-13.97L124.41-13.97Q123.84-13.16 123.03-12.03L123.03-12.03L123.03-12.03Q122.22-10.91 121.28-9.59L121.28-9.59L121.28-9.59Q120.34-8.28 119.41-7.03L119.41-7.03L119.41-7.03Q118.47-5.78 117.63-4.75L117.63-4.75L117.63-4.75Q116.78-3.72 116.19-3.13L116.19-3.13L116.19-3.13Q114.69-1.63 113.53-0.77L113.53-0.77L113.53-0.77Q112.38 0.09 111.25 0.09L111.25 0.09L111.25 0.09Q110.88 0.09 110.42-0.06L110.42-0.06L110.42-0.06Q109.97-0.22 109.58-0.61L109.58-0.61L109.58-0.61Q109.19-1 108.94-1.70L108.94-1.70L108.94-1.70Q108.69-2.41 108.69-3.50L108.69-3.50L108.69-3.50Q108.69-5.13 109.42-7.09L109.42-7.09L109.42-7.09Q110.16-9.06 111.44-11.11L111.44-11.11L111.44-11.11Q112.72-13.16 114.47-15.13L114.47-15.13L114.47-15.13Q116.22-17.09 118.27-18.67L118.27-18.67L118.27-18.67Q120.31-20.25 122.56-21.31L122.56-21.31L122.56-21.31Q124.81-22.38 127.13-22.59L127.13-22.59L127.13-22.03L127.13-22.03Q125.22-21.47 123.47-20.30L123.47-20.30L123.47-20.30Q121.72-19.13 120.19-17.59L120.19-17.59L120.19-17.59Q118.66-16.06 117.41-14.33L117.41-14.33L117.41-14.33Q116.16-12.59 115.25-10.91L115.25-10.91L115.25-10.91Q114.34-9.22 113.86-7.70L113.86-7.70L113.86-7.70Q113.38-6.19 113.38-5.16L113.38-5.16L113.38-5.16Q113.38-4.59 113.55-4.22L113.55-4.22L113.55-4.22Q113.72-3.84 114.03-3.84L114.03-3.84L114.03-3.84Q114.38-3.84 115.05-4.41L115.05-4.41L115.05-4.41Q115.72-4.97 116.59-5.92L116.59-5.92L116.59-5.92Q117.47-6.88 118.50-8.11L118.50-8.11L118.50-8.11Q119.53-9.34 120.59-10.69L120.59-10.69L120.59-10.69Q121.66-12.03 122.70-13.41L122.70-13.41L122.70-13.41Q123.75-14.78 124.66-16L124.66-16L124.66-16Q126.03-17.88 126.95-19.09L126.95-19.09L126.95-19.09Q127.88-20.31 128.55-21.05L128.55-21.05L128.55-21.05Q129.22-21.78 129.75-22.06L129.75-22.06L129.75-22.06Q130.28-22.34 130.91-22.34L130.91-22.34L130.91-22.34Q131.56-22.34 131.81-22L131.81-22L131.81-22Q132.06-21.66 132.06-21.16L132.06-21.16L132.06-21.16Q132.06-20.75 131.95-20.31L131.95-20.31L131.95-20.31Q131.84-19.88 131.69-19.53L131.69-19.53L124.44-2.16L124.44-2.16Q126.50-3.94 128.86-6.33L128.86-6.33L128.86-6.33Q131.22-8.72 133.97-12.03L133.97-12.03ZM115.59 9.97L118.88 2.03L118.88 2.03Q116.38 3.84 114.34 5.30L114.34 5.30L114.34 5.30Q112.31 6.75 110.89 8.08L110.89 8.08L110.89 8.08Q109.47 9.41 108.70 10.78L108.70 10.78L108.70 10.78Q107.94 12.16 107.94 13.81L107.94 13.81L107.94 13.81Q107.94 14.25 108.06 14.72L108.06 14.72L108.06 14.72Q108.19 15.19 108.45 15.56L108.45 15.56L108.45 15.56Q108.72 15.94 109.16 16.17L109.16 16.17L109.16 16.17Q109.59 16.41 110.22 16.41L110.22 16.41L110.22 16.41Q111.78 16.41 113.08 14.66L113.08 14.66L113.08 14.66Q114.38 12.91 115.59 9.97L115.59 9.97ZM138.06-1.25L138.06-1.25L138.06-1.25Q139.19-1.25 140.52-1.75L140.52-1.75L140.52-1.75Q141.84-2.25 143.52-3.47L143.52-3.47L143.52-3.47Q145.19-4.69 147.22-6.77L147.22-6.77L147.22-6.77Q149.25-8.84 151.78-12L151.78-12L152.56-11.38L152.56-11.38Q150.41-8.63 148.59-6.70L148.59-6.70L148.59-6.70Q146.78-4.78 145.28-3.52L145.28-3.52L145.28-3.52Q143.78-2.25 142.58-1.55L142.58-1.55L142.58-1.55Q141.38-0.84 140.44-0.50L140.44-0.50L140.44-0.50Q139.50-0.16 138.78-0.08L138.78-0.08L138.78-0.08Q138.06 0 137.56 0L137.56 0L137.56 0Q136.81 0 135.88-0.22L135.88-0.22L135.88-0.22Q134.94-0.44 134.13-1.02L134.13-1.02L134.13-1.02Q133.31-1.59 132.77-2.59L132.77-2.59L132.77-2.59Q132.22-3.59 132.22-5.19L132.22-5.19L132.22-5.19Q132.22-7.53 132.98-9.72L132.98-9.72L132.98-9.72Q133.75-11.91 135-13.83L135-13.83L135-13.83Q136.25-15.75 137.83-17.34L137.83-17.34L137.83-17.34Q139.41-18.94 141.05-20.08L141.05-20.08L141.05-20.08Q142.69-21.22 144.22-21.84L144.22-21.84L144.22-21.84Q145.75-22.47 146.91-22.47L146.91-22.47L146.91-22.47Q148.56-22.47 149.30-21.48L149.30-21.48L149.30-21.48Q150.03-20.50 150.03-18.97L150.03-18.97L150.03-18.97Q150.03-17.56 149.41-16.25L149.41-16.25L149.41-16.25Q148.78-14.94 147.75-13.77L147.75-13.77L147.75-13.77Q146.72-12.59 145.36-11.61L145.36-11.61L145.36-11.61Q144-10.63 142.52-9.92L142.52-9.92L142.52-9.92Q141.03-9.22 139.52-8.81L139.52-8.81L139.52-8.81Q138-8.41 136.69-8.41L136.69-8.41L136.69-8.41Q136.28-7.22 136.05-6.16L136.05-6.16L136.05-6.16Q135.81-5.09 135.81-4.19L135.81-4.19L135.81-4.19Q135.81-2.50 136.47-1.88L136.47-1.88L136.47-1.88Q137.13-1.25 138.06-1.25ZM145.88-21.19L145.88-21.19L145.88-21.19Q145.03-21.19 143.84-20.11L143.84-20.11L143.84-20.11Q142.66-19.03 141.39-17.31L141.39-17.31L141.39-17.31Q140.13-15.59 138.95-13.48L138.95-13.48L138.95-13.48Q137.78-11.38 137-9.28L137-9.28L137-9.28Q139.22-9.66 141.05-10.80L141.05-10.80L141.05-10.80Q142.88-11.94 144.17-13.45L144.17-13.45L144.17-13.45Q145.47-14.97 146.17-16.66L146.17-16.66L146.17-16.66Q146.88-18.34 146.88-19.75L146.88-19.75L146.88-19.75Q146.88-20.59 146.59-20.89L146.59-20.89L146.59-20.89Q146.31-21.19 145.88-21.19ZM158.97-17.91L158.97-17.91L158.97-17.91Q159.06-18.13 159.06-18.25L159.06-18.25L159.06-18.25Q159.06-18.44 158.95-18.52L158.95-18.52L158.95-18.52Q158.84-18.59 158.69-18.59L158.69-18.59L158.69-18.59Q158.38-18.59 158.13-18.25L158.13-18.25L151.94-10.59L151.16-11.22L158.19-19.91L158.19-19.91Q159-20.91 159.89-21.67L159.89-21.67L159.89-21.67Q160.78-22.44 161.75-22.44L161.75-22.44L161.75-22.44Q162.66-22.44 163.06-21.95L163.06-21.95L163.06-21.95Q163.47-21.47 163.47-20.88L163.47-20.88L163.47-20.88Q163.47-20.28 163.25-19.53L163.25-19.53L163.25-19.53Q163.03-18.78 162.69-17.97L162.69-17.97L158.34-7.75L158.34-7.75Q158.16-7.31 158.16-7.06L158.16-7.06L158.16-7.06Q158.16-6.75 158.41-6.75L158.41-6.75L158.41-6.75Q158.75-6.75 159.16-7.38L159.16-7.38L165.69-17.09L165.69-17.09Q166.69-18.59 167.48-19.64L167.48-19.64L167.48-19.64Q168.28-20.69 168.98-21.34L168.98-21.34L168.98-21.34Q169.69-22 170.33-22.30L170.33-22.30L170.33-22.30Q170.97-22.59 171.66-22.59L171.66-22.59L171.66-22.59Q172.84-22.59 173.47-22.13L173.47-22.13L173.47-22.13Q174.09-21.66 174.09-20.75L174.09-20.75L174.09-20.75Q174.09-20.22 173.94-19.64L173.94-19.64L173.94-19.64Q173.78-19.06 173.63-18.63L173.63-18.63L168.19-5.31L168.19-5.31Q168.06-5 167.97-4.70L167.97-4.70L167.97-4.70Q167.88-4.41 167.88-4.19L167.88-4.19L167.88-4.19Q167.88-3.81 168.05-3.69L168.05-3.69L168.05-3.69Q168.22-3.56 168.50-3.56L168.50-3.56L168.50-3.56Q168.94-3.56 169.56-4L169.56-4L169.56-4Q170.19-4.44 170.88-5.28L170.88-5.28L176.59-12.34L177.38-11.72L170.47-3.19L170.47-3.19Q169.72-2.25 169.06-1.63L169.06-1.63L169.06-1.63Q168.41-1 167.83-0.64L167.83-0.64L167.83-0.64Q167.25-0.28 166.67-0.13L166.67-0.13L166.67-0.13Q166.09 0.03 165.50 0.03L165.50 0.03L165.50 0.03Q164.56 0.03 163.94-0.52L163.94-0.52L163.94-0.52Q163.31-1.06 163.31-1.91L163.31-1.91L163.31-1.91Q163.31-2.69 163.69-3.75L163.69-3.75L163.69-3.75Q164.06-4.81 164.72-6.34L164.72-6.34L169.78-18.31L169.78-18.31Q169.88-18.53 169.88-18.78L169.88-18.78L169.88-18.78Q169.88-19.41 169.28-19.41L169.28-19.41L169.28-19.41Q169.03-19.41 168.73-19.25L168.73-19.25L168.73-19.25Q168.44-19.09 168.13-18.63L168.13-18.63L157.81-3.31L157.81-3.31Q156.59-1.50 155.67-0.73L155.67-0.73L155.67-0.73Q154.75 0.03 153.88 0.03L153.88 0.03L153.88 0.03Q152.44 0.03 152.44-1.34L152.44-1.34L152.44-1.34Q152.44-2.06 152.80-3.13L152.80-3.13L152.80-3.13Q153.16-4.19 153.78-5.69L153.78-5.69L158.97-17.91ZM185.75-20.69L181.88-18.44L181.88-18.44Q181.41-20.16 181.41-21.94L181.41-21.94L181.41-21.94Q181.41-25 182.67-27.92L182.67-27.92L182.67-27.92Q183.94-30.84 186.14-33.11L186.14-33.11L186.14-33.11Q188.34-35.38 191.31-36.77L191.31-36.77L191.31-36.77Q194.28-38.16 197.72-38.16L197.72-38.16L197.72-38.16Q199.63-38.16 201.20-37.53L201.20-37.53L201.20-37.53Q202.78-36.91 203.91-35.81L203.91-35.81L203.91-35.81Q205.03-34.72 205.66-33.23L205.66-33.23L205.66-33.23Q206.28-31.75 206.28-30L206.28-30L206.28-30Q206.28-26.78 205.08-24.17L205.08-24.17L205.08-24.17Q203.88-21.56 201.81-19.33L201.81-19.33L201.81-19.33Q199.75-17.09 197-15.14L197-15.14L197-15.14Q194.25-13.19 191.16-11.28L191.16-11.28L191.16-11.28Q188.06-9.38 184.78-7.39L184.78-7.39L184.78-7.39Q181.50-5.41 178.41-3.13L178.41-3.13L178.41-3.13Q178.88-3.34 179.25-3.47L179.25-3.47L179.25-3.47Q179.63-3.59 180.05-3.66L180.05-3.66L180.05-3.66Q180.47-3.72 180.98-3.73L180.98-3.73L180.98-3.73Q181.50-3.75 182.25-3.75L182.25-3.75L182.25-3.75Q184-3.75 186.02-3.59L186.02-3.59L186.02-3.59Q188.03-3.44 190.19-3.44L190.19-3.44L190.19-3.44Q191.09-3.44 191.83-3.53L191.83-3.53L191.83-3.53Q192.56-3.63 193.19-3.83L193.19-3.83L193.19-3.83Q193.81-4.03 194.36-4.38L194.36-4.38L194.36-4.38Q194.91-4.72 195.44-5.22L195.44-5.22L196.56-4.63L192.34 0.53L192.34 0.53Q190.53 0.31 188.80 0.02L188.80 0.02L188.80 0.02Q187.06-0.28 185.31-0.53L185.31-0.53L185.31-0.53Q183.56-0.78 181.73-0.95L181.73-0.95L181.73-0.95Q179.91-1.13 177.91-1.13L177.91-1.13L177.91-1.13Q176.59-1.13 175.22-0.72L175.22-0.72L175.22-0.72Q173.84-0.31 172.69 0.59L172.69 0.59L171.94-0.38L171.94-0.38Q175.66-3.28 179.36-5.80L179.36-5.80L179.36-5.80Q183.06-8.31 186.42-10.61L186.42-10.61L186.42-10.61Q189.78-12.91 192.67-15.11L192.67-15.11L192.67-15.11Q195.56-17.31 197.70-19.61L197.70-19.61L197.70-19.61Q199.84-21.91 201.05-24.42L201.05-24.42L201.05-24.42Q202.25-26.94 202.25-29.88L202.25-29.88L202.25-29.88Q202.25-31.28 201.83-32.50L201.83-32.50L201.83-32.50Q201.41-33.72 200.63-34.61L200.63-34.61L200.63-34.61Q199.84-35.50 198.75-36.02L198.75-36.02L198.75-36.02Q197.66-36.53 196.31-36.53L196.31-36.53L196.31-36.53Q193.69-36.53 191.53-35.44L191.53-35.44L191.53-35.44Q189.38-34.34 187.84-32.64L187.84-32.64L187.84-32.64Q186.31-30.94 185.47-28.83L185.47-28.83L185.47-28.83Q184.63-26.72 184.63-24.69L184.63-24.69L184.63-24.69Q184.63-23.59 184.91-22.56L184.91-22.56L184.91-22.56Q185.19-21.53 185.75-20.69L185.75-20.69Z" fill="#ccc"></path></g></g><style>text {
  font-size: 64px;
  font-family: Arial Black;
  dominant-baseline: central;
  text-anchor: middle;
}</style></svg>