<svg 
 xmlns="http://www.w3.org/2000/svg"
 xmlns:xlink="http://www.w3.org/1999/xlink"
 width="127px" height="58px">
<defs>
<filter filterUnits="userSpaceOnUse" id="Filter_0" x="0px" y="0px" width="127px" height="58px"  >
    <feOffset in="SourceAlpha" dx="0" dy="3" />
    <feGaussianBlur result="blurOut" stdDeviation="2.646" />
    <feFlood flood-color="rgb(0, 0, 0)" result="floodOut" />
    <feComposite operator="atop" in="floodOut" in2="blurOut" />
    <feComponentTransfer><feFuncA type="linear" slope="0.11"/></feComponentTransfer>
    <feMerge>
    <feMergeNode/>
    <feMergeNode in="SourceGraphic"/>
  </feMerge>
</filter>

</defs>
<g filter="url(#Filter_0)">
<path fill-rule="evenodd"  fill="rgb(255, 255, 255)"
 d="M119.588,29.946 C119.588,30.001 119.532,30.084 119.423,30.194 L118.928,30.936 L118.928,31.514 C118.928,32.009 118.625,32.257 118.020,32.257 C117.909,32.257 117.661,32.162 117.277,31.968 C116.893,31.776 116.466,31.555 115.998,31.308 C115.531,31.060 115.104,30.827 114.718,30.606 C114.334,30.387 114.087,30.222 113.976,30.111 L113.893,29.946 L113.976,29.781 C114.031,29.727 114.141,29.698 114.306,29.698 L115.709,30.194 C115.655,30.084 115.476,29.960 115.172,29.822 C114.871,29.686 114.541,29.548 114.182,29.410 C113.825,29.273 113.468,29.162 113.109,29.079 C112.752,28.997 112.518,28.956 112.408,28.956 C112.793,30.387 113.109,31.543 113.357,32.422 C113.604,33.303 113.839,34.114 114.058,34.857 C114.279,35.599 114.417,36.026 114.471,36.136 L114.801,37.044 C114.747,36.769 114.664,36.439 114.553,36.053 C114.444,35.669 114.334,35.283 114.223,34.898 L113.976,33.825 C113.922,33.660 113.893,33.468 113.893,33.247 L113.728,32.670 C113.728,32.505 113.839,32.422 114.058,32.422 C114.169,32.422 114.279,32.477 114.388,32.587 C114.499,32.698 114.553,32.808 114.553,32.917 L115.379,34.815 C115.490,35.145 115.614,35.476 115.750,35.806 C115.888,36.136 116.039,36.466 116.204,36.796 C116.315,37.126 116.410,37.471 116.493,37.828 C116.576,38.186 116.672,38.529 116.782,38.859 L116.947,39.602 L117.277,39.932 C117.332,39.932 117.415,39.974 117.525,40.056 C117.634,40.139 117.690,40.235 117.690,40.345 C117.690,41.005 117.442,41.529 116.947,41.913 L115.957,42.986 C115.957,43.151 115.929,43.234 115.874,43.234 L115.791,43.399 C115.791,43.510 115.655,43.564 115.379,43.564 C115.160,43.564 115.022,43.537 114.966,43.481 L114.553,43.399 C114.279,43.399 114.058,43.440 113.893,43.523 C113.728,43.605 113.563,43.675 113.398,43.729 L113.068,43.894 C112.903,44.004 112.655,44.059 112.325,44.059 C111.830,44.059 111.582,43.839 111.582,43.399 L111.582,42.491 C111.638,42.381 111.665,42.285 111.665,42.202 C111.665,42.119 111.693,42.024 111.747,41.913 L111.912,41.336 C112.188,40.235 112.325,39.218 112.325,38.282 C112.325,37.126 112.174,35.985 111.871,34.857 C111.569,33.730 111.252,32.615 110.922,31.514 C110.812,31.184 110.744,30.854 110.716,30.524 C110.689,30.194 110.620,29.863 110.509,29.533 L110.097,28.543 C109.767,28.433 109.409,28.337 109.024,28.254 C108.639,28.172 108.281,28.130 107.951,28.130 C107.567,28.130 107.249,28.365 107.002,28.832 C106.754,29.300 106.562,29.836 106.424,30.441 C106.287,31.047 106.191,31.652 106.135,32.257 C106.081,32.863 106.053,33.303 106.053,33.577 C105.998,34.623 105.943,35.641 105.888,36.631 C105.833,37.622 105.751,38.667 105.640,39.767 L105.640,41.005 L106.053,39.355 C106.053,39.301 106.067,39.259 106.094,39.231 C106.122,39.204 106.135,39.136 106.135,39.025 C106.135,38.915 106.191,38.915 106.300,39.025 L106.383,39.190 C106.383,39.301 106.397,39.396 106.424,39.479 C106.452,39.561 106.465,39.658 106.465,39.767 L106.465,40.180 C106.465,40.786 106.452,41.364 106.424,41.913 C106.397,42.464 106.383,43.015 106.383,43.564 C106.383,43.839 106.411,44.086 106.465,44.307 C106.521,44.526 106.576,44.746 106.630,44.967 L106.713,45.297 C106.713,45.462 106.741,45.599 106.795,45.710 L106.795,46.122 C106.686,46.672 106.383,46.948 105.888,46.948 C105.723,46.948 105.475,46.892 105.145,46.783 L104.980,46.700 C104.705,47.084 104.375,47.305 103.989,47.360 C103.880,47.360 103.770,47.332 103.659,47.278 L103.081,47.113 L102.256,47.525 C101.707,47.745 101.321,47.855 101.101,47.855 C100.661,47.855 100.399,47.676 100.317,47.319 C100.234,46.961 100.193,46.645 100.193,46.370 C100.193,46.205 100.207,45.888 100.234,45.421 C100.262,44.953 100.317,44.443 100.399,43.894 C100.482,43.345 100.564,42.835 100.647,42.367 C100.729,41.900 100.826,41.556 100.936,41.336 L101.348,41.336 C101.459,41.556 101.513,41.694 101.513,41.748 L101.596,41.996 C101.596,42.051 101.610,42.107 101.637,42.161 C101.665,42.216 101.678,42.299 101.678,42.408 L101.678,43.069 L101.843,42.739 L102.256,40.923 C102.312,40.539 102.353,40.167 102.380,39.809 C102.408,39.451 102.450,39.107 102.504,38.777 C102.559,38.393 102.615,38.021 102.669,37.663 C102.724,37.306 102.807,36.961 102.916,36.631 C103.081,35.971 103.219,35.283 103.329,34.568 C103.440,33.853 103.494,33.193 103.494,32.587 C103.494,31.927 103.494,31.267 103.494,30.606 C103.494,29.946 103.440,29.286 103.329,28.625 C103.275,28.130 102.945,27.800 102.339,27.635 L100.771,27.635 L100.853,27.800 C100.909,27.800 100.936,27.829 100.936,27.883 C100.936,27.938 100.881,27.965 100.771,27.965 C100.716,28.021 100.578,28.048 100.358,28.048 L98.872,28.048 L97.304,28.048 C97.029,28.048 96.576,28.021 95.942,27.965 C95.603,27.936 95.362,27.855 95.205,27.731 C94.842,27.740 94.472,27.747 94.154,27.779 C93.700,27.824 93.359,27.870 93.133,27.915 C92.815,28.006 92.497,28.074 92.180,28.119 C91.861,28.165 91.543,28.210 91.226,28.255 L90.409,28.391 C89.592,28.619 88.763,28.800 87.924,28.936 C87.084,29.072 86.256,29.254 85.439,29.481 L84.554,29.821 C84.462,30.684 84.349,31.535 84.213,32.374 C84.077,33.215 84.009,34.043 84.009,34.860 C84.009,34.996 84.009,35.166 84.009,35.371 C84.009,35.575 84.053,35.791 84.145,36.017 C84.235,36.472 84.417,36.698 84.690,36.698 L86.324,36.426 C86.368,36.426 86.403,36.437 86.426,36.460 C86.448,36.483 86.482,36.494 86.528,36.494 C86.528,36.585 86.482,36.676 86.392,36.766 C86.300,36.858 86.210,36.902 86.120,36.902 L84.826,37.311 L84.690,37.583 L85.915,37.720 C86.460,37.720 86.993,37.685 87.515,37.617 C88.037,37.549 88.571,37.515 89.116,37.515 C89.433,37.515 89.751,37.481 90.069,37.413 C90.386,37.345 90.704,37.289 91.022,37.243 C91.158,37.243 91.317,37.289 91.499,37.379 L91.567,37.447 C91.657,37.447 91.657,37.493 91.567,37.583 C91.475,37.583 91.385,37.629 91.294,37.720 L91.090,37.787 C90.636,37.924 90.216,38.038 89.830,38.128 C89.444,38.220 89.024,38.310 88.571,38.400 L87.686,38.605 C88.911,38.514 90.011,38.310 90.988,37.992 C91.964,37.675 92.973,37.266 94.018,36.766 C94.427,36.585 94.789,36.437 95.107,36.324 C95.424,36.211 95.697,36.153 95.924,36.153 C96.151,36.153 96.446,36.063 96.810,35.881 C97.172,35.700 97.535,35.473 97.899,35.200 C98.262,34.928 98.625,34.645 98.988,34.349 C99.351,34.054 99.646,33.816 99.874,33.634 C99.918,33.544 99.998,33.442 100.112,33.328 C100.225,33.215 100.327,33.158 100.418,33.158 C100.599,33.158 100.623,33.226 100.486,33.362 C100.395,33.726 100.123,34.111 99.669,34.519 C99.215,34.928 98.704,35.336 98.137,35.745 C97.569,36.153 96.990,36.528 96.401,36.868 C95.811,37.209 95.334,37.493 94.971,37.720 L94.563,38.060 L95.243,37.652 C95.470,37.561 95.708,37.459 95.959,37.345 C96.207,37.232 96.423,37.175 96.605,37.175 L96.742,37.311 C96.742,37.675 96.185,38.140 95.073,38.707 C93.961,39.274 92.667,39.830 91.192,40.375 C89.717,40.920 88.253,41.430 86.801,41.907 C85.347,42.384 84.281,42.712 83.600,42.894 C83.464,42.894 83.396,42.939 83.396,43.030 L82.375,43.235 L81.149,43.371 C80.775,43.437 80.413,43.520 80.061,43.618 C80.771,44.058 81.517,44.455 82.307,44.801 C83.760,45.436 85.416,45.890 87.278,46.162 L88.844,46.367 C89.071,46.367 89.253,46.333 89.389,46.265 C89.525,46.197 89.638,46.117 89.729,46.026 L89.933,45.890 C89.933,45.844 90.001,45.822 90.138,45.822 L90.138,45.958 C89.774,46.548 89.297,46.843 88.708,46.843 C87.663,46.843 86.619,46.775 85.576,46.639 C84.531,46.503 83.510,46.253 82.512,45.890 C82.330,45.890 82.125,45.856 81.899,45.788 C81.671,45.720 81.445,45.640 81.218,45.550 L80.673,45.346 L80.809,45.550 C80.900,45.686 80.878,45.731 80.741,45.686 C79.878,45.550 78.937,45.141 77.916,44.460 C76.894,43.779 75.895,42.996 74.920,42.111 C73.943,41.226 73.058,40.317 72.264,39.388 C71.469,38.458 70.823,37.652 70.324,36.971 C69.551,35.745 68.712,34.519 67.804,33.294 C67.350,32.659 66.885,32.058 66.409,31.489 C65.932,30.922 65.421,30.412 64.876,29.957 L64.196,29.617 C64.014,30.071 63.843,30.740 63.685,31.625 C63.525,32.511 63.389,33.464 63.276,34.485 C63.163,35.507 63.083,36.494 63.038,37.447 C62.992,38.400 62.970,39.172 62.970,39.762 L62.970,40.511 L62.902,40.784 C62.810,41.010 62.708,41.226 62.596,41.430 C62.482,41.635 62.289,41.737 62.017,41.737 C61.835,41.737 61.540,41.669 61.132,41.533 C60.723,41.396 60.451,41.283 60.315,41.192 L58.612,40.375 C57.886,40.147 57.523,39.853 57.523,39.490 C57.523,39.354 57.557,39.092 57.625,38.707 C57.693,38.322 57.761,37.913 57.829,37.481 C57.897,37.050 57.988,36.642 58.102,36.256 C58.214,35.870 58.294,35.586 58.340,35.404 C58.340,35.224 58.385,35.268 58.476,35.541 L58.476,36.017 L58.476,36.358 L58.749,37.039 L58.885,37.107 C58.929,37.107 58.953,37.130 58.953,37.175 L58.953,37.243 L59.021,37.652 C59.202,37.471 59.474,36.858 59.838,35.813 C60.201,34.769 60.553,33.612 60.893,32.341 C61.234,31.070 61.528,29.821 61.778,28.596 C62.027,27.370 62.153,26.508 62.153,26.008 C62.153,25.827 62.153,25.657 62.153,25.497 C62.153,25.339 62.198,25.146 62.289,24.919 L62.630,23.761 C62.720,23.398 62.810,23.024 62.902,22.638 C62.992,22.253 63.038,21.878 63.038,21.514 C63.038,21.152 62.970,20.935 62.834,20.867 C62.698,20.799 62.538,20.765 62.357,20.765 L62.085,20.765 L61.676,20.765 C61.585,20.721 61.540,20.675 61.540,20.629 C61.540,20.584 61.585,20.561 61.676,20.561 C61.812,20.471 62.061,20.425 62.425,20.425 C62.561,20.380 62.708,20.357 62.868,20.357 C63.026,20.357 63.151,20.334 63.242,20.289 L63.447,20.084 L63.242,19.880 L62.970,19.812 C62.742,19.812 62.504,19.835 62.255,19.880 C62.005,19.926 61.699,19.994 61.336,20.084 C61.018,20.176 60.723,20.266 60.451,20.357 C60.178,20.448 59.928,20.516 59.702,20.561 L59.157,20.833 L59.429,20.833 C59.474,20.879 59.588,20.902 59.770,20.902 L59.906,20.969 C60.133,21.015 60.133,21.083 59.906,21.174 L58.068,21.719 C58.022,21.719 57.976,21.730 57.931,21.753 C57.886,21.776 57.818,21.787 57.727,21.787 L57.387,21.855 C56.887,21.855 56.524,21.662 56.297,21.276 C56.070,20.891 55.957,20.493 55.957,20.084 C55.912,19.994 55.900,19.938 55.923,19.914 C55.946,19.892 55.957,19.858 55.957,19.812 L55.957,19.608 C55.957,19.245 55.889,18.871 55.753,18.484 C55.616,18.099 55.458,17.747 55.276,17.429 L54.731,16.135 C54.641,15.954 54.618,15.772 54.663,15.591 C54.755,15.500 54.867,15.454 55.004,15.454 C55.231,15.454 55.458,15.522 55.684,15.659 L56.297,16.203 C56.887,16.839 57.489,17.236 58.102,17.395 C58.714,17.554 59.429,17.657 60.246,17.701 C60.609,17.701 60.995,17.713 61.404,17.735 C61.812,17.759 62.198,17.793 62.561,17.837 C62.834,17.837 62.856,17.905 62.630,18.042 L63.855,17.769 L64.059,17.633 C64.104,17.633 64.138,17.623 64.162,17.599 C64.184,17.577 64.218,17.565 64.264,17.565 L65.694,17.293 L67.123,16.680 C67.214,16.635 67.294,16.612 67.362,16.612 C67.430,16.612 67.509,16.590 67.600,16.544 L68.009,16.476 C68.417,16.385 68.848,16.329 69.302,16.305 C69.756,16.283 70.187,16.227 70.596,16.135 C71.231,16.091 71.810,16.011 72.332,15.897 C72.854,15.784 73.388,15.614 73.932,15.386 C74.069,15.342 74.205,15.296 74.341,15.250 C74.477,15.205 74.658,15.182 74.886,15.182 L75.567,15.114 L75.635,15.114 C75.725,15.114 75.781,15.126 75.805,15.148 C75.827,15.171 75.861,15.182 75.907,15.182 C76.043,15.318 76.111,15.432 76.111,15.522 L76.111,15.659 C76.156,15.704 76.179,15.750 76.179,15.795 C76.179,15.841 76.202,15.909 76.247,15.999 L76.452,16.884 C76.542,16.976 76.622,17.100 76.690,17.259 C76.758,17.418 76.792,17.565 76.792,17.701 L76.792,17.905 L77.064,18.450 C77.155,18.496 77.211,18.542 77.235,18.586 C77.257,18.632 77.291,18.678 77.337,18.723 C77.427,18.859 77.450,18.973 77.405,19.063 C77.313,19.517 76.871,20.142 76.077,20.935 C75.282,21.730 74.375,22.525 73.354,23.319 C72.332,24.113 71.333,24.851 70.358,25.532 C69.381,26.212 68.690,26.689 68.281,26.961 L68.349,27.098 L68.621,27.234 C68.894,27.370 69.200,27.688 69.541,28.187 C69.881,28.687 70.210,29.232 70.528,29.821 C70.845,30.412 71.129,30.979 71.379,31.523 C71.628,32.068 71.798,32.477 71.890,32.749 C72.071,33.021 72.048,33.158 71.822,33.158 C71.730,33.158 71.617,33.045 71.481,32.817 C71.345,32.591 71.253,32.432 71.209,32.341 L70.732,31.591 C70.777,31.728 70.879,31.955 71.039,32.272 C71.197,32.591 71.367,32.919 71.549,33.260 C71.730,33.600 71.890,33.906 72.026,34.179 C72.162,34.451 72.253,34.633 72.298,34.724 C73.206,36.313 74.147,37.754 75.124,39.047 C76.063,40.293 77.100,41.376 78.229,42.306 C78.250,42.277 78.267,42.242 78.289,42.213 L78.630,41.737 L78.766,41.192 L78.630,40.920 L78.153,40.579 C78.062,40.488 77.937,40.295 77.779,40.000 C77.619,39.705 77.495,39.444 77.404,39.217 C77.358,39.172 77.381,39.058 77.472,38.877 C77.608,38.650 77.789,38.492 78.017,38.400 L79.651,37.720 C79.924,37.629 80.218,37.527 80.536,37.413 C80.853,37.300 81.149,37.198 81.421,37.107 L81.353,36.290 L81.149,35.541 C81.058,35.360 81.013,35.178 81.013,34.996 C81.013,34.815 81.013,34.633 81.013,34.451 L81.013,33.430 C81.013,33.067 81.035,32.659 81.081,32.204 C81.126,31.751 81.149,31.342 81.149,30.979 L80.604,30.979 L80.060,31.183 C79.878,31.229 79.707,31.274 79.549,31.319 C79.389,31.365 79.219,31.387 79.038,31.387 C78.675,31.387 78.494,31.206 78.494,30.842 C78.494,30.752 78.528,30.628 78.596,30.468 C78.664,30.310 78.766,30.207 78.902,30.162 L79.243,29.140 L79.106,28.527 L79.106,28.119 L79.243,27.438 C79.379,26.667 79.537,26.202 79.719,26.042 C79.900,25.884 80.377,25.804 81.149,25.804 L82.239,25.736 L82.443,24.715 C82.443,24.397 82.351,24.216 82.170,24.170 C82.125,24.170 82.102,24.159 82.102,24.136 C82.102,24.113 82.125,24.102 82.170,24.102 L82.579,23.625 C82.624,23.580 82.692,23.410 82.783,23.114 C82.874,22.820 82.964,22.491 83.056,22.127 C83.146,21.764 83.226,21.412 83.294,21.072 C83.362,20.731 83.396,20.516 83.396,20.425 L82.919,20.493 L82.307,20.697 C81.852,20.879 81.444,20.969 81.081,20.969 C80.763,20.969 80.581,20.857 80.536,20.629 L80.536,20.152 C80.536,20.016 80.581,19.858 80.672,19.676 L80.741,19.472 C80.831,19.291 80.899,19.131 80.945,18.995 C80.990,18.859 81.013,18.700 81.013,18.518 C81.013,18.292 80.990,18.042 80.945,17.769 C80.899,17.497 80.853,17.248 80.809,17.020 C80.809,16.521 80.899,16.113 81.081,15.795 C81.126,15.795 81.160,15.784 81.183,15.761 C81.205,15.738 81.262,15.704 81.353,15.659 C81.398,15.659 81.432,15.670 81.455,15.693 C81.478,15.716 81.534,15.727 81.626,15.727 L81.830,15.863 C82.147,15.954 82.487,15.999 82.851,15.999 C83.214,15.999 83.555,15.999 83.873,15.999 C84.281,15.999 84.542,15.943 84.656,15.829 C84.768,15.716 84.848,15.614 84.894,15.522 L84.962,15.386 C84.962,15.296 85.030,15.250 85.166,15.250 L85.234,15.182 L85.439,15.182 L85.643,15.182 C85.824,15.364 85.983,15.500 86.120,15.591 L86.732,16.135 L87.481,16.612 C87.618,16.703 87.730,16.839 87.822,17.020 C87.912,17.202 87.958,17.339 87.958,17.429 L90.750,17.633 L90.682,17.497 C90.682,17.407 90.704,17.339 90.750,17.293 C90.840,17.248 90.931,17.225 91.022,17.225 L91.431,17.088 C91.657,17.088 91.873,17.088 92.077,17.088 C92.282,17.088 92.428,17.066 92.520,17.020 C92.883,16.976 93.269,16.918 93.677,16.850 C94.086,16.782 94.495,16.703 94.903,16.612 C95.356,16.521 95.788,16.442 96.197,16.374 C96.605,16.305 96.990,16.271 97.354,16.271 C97.581,16.271 97.785,16.340 97.967,16.476 C98.148,16.612 98.239,16.839 98.239,17.157 L98.239,17.497 L98.308,17.633 C98.308,17.725 98.330,17.815 98.376,17.905 L98.444,17.974 C98.444,18.065 98.454,18.133 98.478,18.178 C98.500,18.224 98.512,18.292 98.512,18.382 C98.376,18.791 98.194,19.109 97.967,19.335 L97.559,19.948 L97.831,20.221 C97.921,20.312 98.012,20.403 98.103,20.493 C98.194,20.584 98.239,20.697 98.239,20.833 C98.239,21.061 98.103,21.197 97.831,21.242 C97.559,21.288 97.286,21.333 97.014,21.378 C95.924,21.378 94.835,21.412 93.746,21.480 C92.656,21.548 91.567,21.696 90.477,21.923 C90.341,21.969 90.023,22.048 89.524,22.161 C89.024,22.275 88.491,22.411 87.924,22.570 C87.356,22.729 86.845,22.876 86.392,23.012 C85.938,23.148 85.665,23.262 85.575,23.353 C85.483,23.444 85.359,23.751 85.200,24.272 C85.041,24.794 84.962,25.146 84.962,25.327 C84.962,25.509 85.030,25.623 85.166,25.668 C85.302,25.714 85.439,25.759 85.575,25.804 L85.847,25.804 C85.983,25.804 86.074,25.872 86.120,26.008 L86.120,26.076 L86.051,26.144 C85.915,26.144 85.824,26.168 85.779,26.212 L85.030,26.349 L84.758,26.689 C85.347,26.689 85.938,26.678 86.528,26.655 C87.118,26.633 87.708,26.621 88.298,26.621 L90.409,26.553 C90.545,26.553 90.954,26.553 91.635,26.553 C92.316,26.553 93.053,26.576 93.848,26.621 C94.464,26.656 95.030,26.692 95.593,26.727 C95.789,26.658 96.017,26.600 96.314,26.562 C97.195,26.452 98.102,26.370 99.037,26.315 L101.761,26.315 L103.164,26.150 L103.246,25.902 C103.246,25.187 103.219,24.348 103.164,23.385 C103.110,22.423 103.040,21.432 102.958,20.413 C102.875,19.396 102.738,18.406 102.545,17.442 C102.353,16.480 102.146,15.641 101.926,14.925 L101.926,15.090 C101.926,15.201 101.843,15.338 101.678,15.503 C101.569,15.614 101.486,15.641 101.431,15.585 C101.377,15.531 101.348,15.449 101.348,15.338 C101.294,14.788 101.142,14.265 100.894,13.770 C100.647,13.274 100.386,12.862 100.110,12.532 L99.450,11.624 C99.450,11.570 99.367,11.459 99.202,11.294 L99.202,11.129 C98.983,10.909 98.928,10.716 99.037,10.551 C99.148,10.441 99.285,10.317 99.450,10.179 C99.615,10.043 99.809,9.919 100.028,9.808 L101.348,9.065 L101.761,8.240 C101.981,7.910 102.229,7.745 102.504,7.745 C102.615,7.745 102.683,7.759 102.710,7.786 C102.738,7.814 102.780,7.827 102.834,7.827 L102.916,7.827 C103.137,7.827 103.275,7.856 103.329,7.910 L103.907,7.992 C104.183,8.103 104.443,8.199 104.691,8.281 C104.938,8.364 105.173,8.405 105.392,8.405 L105.557,8.322 C105.613,8.268 105.751,8.240 105.970,8.240 C106.135,8.240 106.329,8.295 106.548,8.405 L107.208,9.313 L108.116,9.973 C108.281,10.138 108.419,10.332 108.529,10.551 C108.584,10.716 108.557,10.992 108.446,11.376 L108.364,11.541 C108.309,11.762 108.116,11.982 107.786,12.202 L107.538,12.449 C107.264,12.614 107.030,12.808 106.837,13.027 C106.645,13.247 106.548,13.550 106.548,13.935 L106.713,14.513 L106.960,14.925 C106.960,15.036 106.989,15.131 107.043,15.214 C107.098,15.296 107.126,15.393 107.126,15.503 L107.868,17.649 C108.144,18.255 108.364,18.874 108.529,19.506 C108.694,20.139 108.887,20.785 109.106,21.445 C109.271,21.831 109.465,22.188 109.684,22.518 C109.905,22.848 110.070,23.207 110.179,23.591 C110.344,23.921 110.496,24.251 110.633,24.581 C110.771,24.912 110.895,25.215 111.005,25.489 L111.417,25.819 C112.078,25.930 112.862,25.999 113.769,26.026 C114.677,26.054 115.490,26.067 116.204,26.067 C116.480,26.067 116.782,26.054 117.112,26.026 C117.442,25.999 117.661,25.848 117.772,25.572 C117.882,25.518 117.937,25.421 117.937,25.283 C117.937,25.146 117.991,24.994 118.102,24.829 C118.322,24.499 118.515,24.334 118.680,24.334 C118.955,24.334 119.093,24.445 119.093,24.664 C119.202,24.884 119.202,25.105 119.093,25.324 L118.928,26.645 C118.928,26.865 118.955,27.086 119.010,27.305 C119.064,27.526 119.147,27.773 119.258,28.048 L119.505,28.378 C119.505,28.489 119.532,28.625 119.588,28.791 C119.642,28.956 119.670,29.094 119.670,29.203 L119.670,29.286 L119.670,29.781 L119.588,29.946 ZM69.473,23.761 C70.630,22.854 71.730,21.855 72.775,20.765 L73.796,19.540 L74.409,18.450 C72.593,18.542 70.845,18.678 69.166,18.859 L68.485,18.995 L68.145,19.131 L68.213,19.267 C68.213,19.313 68.224,19.347 68.247,19.369 C68.269,19.393 68.281,19.427 68.281,19.472 L68.349,19.608 C68.349,19.699 68.360,19.801 68.383,19.914 C68.406,20.028 68.394,20.108 68.349,20.152 C68.258,20.289 68.155,20.414 68.043,20.527 C67.929,20.641 67.804,20.765 67.668,20.902 L66.170,22.331 C66.079,22.423 65.966,22.695 65.830,23.148 C65.694,23.603 65.557,24.079 65.421,24.578 C65.285,25.078 65.160,25.555 65.047,26.008 C64.933,26.462 64.876,26.757 64.876,26.893 C64.967,26.893 65.115,26.837 65.319,26.723 C65.523,26.610 65.738,26.462 65.966,26.280 C67.146,25.509 68.315,24.670 69.473,23.761 ZM82.307,41.737 C81.988,41.827 81.670,41.929 81.353,42.043 C81.035,42.156 80.717,42.213 80.400,42.213 L79.924,42.350 C80.060,42.350 80.377,42.304 80.877,42.213 C81.376,42.122 81.954,41.997 82.613,41.839 C83.270,41.679 83.951,41.498 84.656,41.294 C85.359,41.090 85.983,40.920 86.528,40.784 C85.847,40.964 85.155,41.124 84.451,41.260 C83.747,41.396 83.032,41.555 82.307,41.737 ZM84.009,29.957 L83.873,30.230 C83.873,30.321 83.849,30.502 83.805,30.774 C83.759,31.047 83.713,31.342 83.668,31.660 L83.941,30.774 L84.009,29.957 ZM84.077,16.952 L83.600,17.020 L84.009,17.088 L84.349,16.952 L84.077,16.952 ZM87.550,21.855 C88.593,21.628 89.614,21.390 90.613,21.140 C91.611,20.891 92.633,20.675 93.677,20.493 L95.175,20.152 C95.175,20.062 95.039,19.982 94.767,19.914 C94.495,19.846 94.176,19.790 93.814,19.744 C93.450,19.699 93.109,19.665 92.792,19.642 C92.474,19.619 92.248,19.608 92.111,19.608 C91.930,19.608 91.567,19.608 91.022,19.608 C90.477,19.608 89.909,19.619 89.320,19.642 C88.729,19.665 88.185,19.699 87.686,19.744 C87.186,19.790 86.891,19.858 86.801,19.948 C86.619,20.130 86.437,20.471 86.256,20.969 C86.164,21.197 86.108,21.424 86.086,21.650 C86.062,21.878 86.006,22.059 85.915,22.195 C86.232,22.195 86.777,22.082 87.550,21.855 ZM104.072,33.495 C104.018,34.046 103.962,34.568 103.907,35.063 C103.853,35.558 103.824,36.053 103.824,36.549 L103.907,37.374 C104.072,35.944 104.183,34.444 104.237,32.876 C104.292,31.308 104.319,29.809 104.319,28.378 L104.237,29.286 C104.237,30.001 104.224,30.703 104.196,31.390 C104.169,32.079 104.127,32.781 104.072,33.495 ZM104.361,24.210 C104.334,23.908 104.292,23.646 104.237,23.426 L104.237,25.407 L104.319,24.829 C104.375,24.719 104.389,24.513 104.361,24.210 ZM108.776,23.756 L107.456,19.960 C107.346,19.685 107.222,19.369 107.084,19.010 C106.948,18.653 106.768,18.337 106.548,18.061 C106.548,18.556 106.576,19.039 106.630,19.506 C106.686,19.974 106.713,20.428 106.713,20.867 L106.713,22.353 L106.713,22.766 L106.713,23.013 C106.713,23.178 106.630,23.261 106.465,23.261 C106.246,23.096 106.135,22.931 106.135,22.766 L105.888,21.198 C105.888,21.474 105.875,21.886 105.846,22.436 C105.819,22.986 105.860,23.537 105.970,24.086 C106.026,24.637 106.135,25.105 106.300,25.489 C106.465,25.875 106.741,26.067 107.126,26.067 L107.868,25.902 C108.033,25.792 108.254,25.737 108.529,25.737 L109.189,25.654 L108.776,23.756 ZM55.140,22.570 C55.185,23.138 55.231,23.727 55.276,24.340 C55.321,24.953 55.344,25.555 55.344,26.144 C55.344,26.735 55.344,27.211 55.344,27.574 C55.344,27.847 55.333,28.313 55.310,28.970 C55.287,29.629 55.208,30.071 55.072,30.298 C55.026,30.434 54.936,30.502 54.800,30.502 C54.754,30.548 54.664,30.525 54.527,30.434 C54.436,30.344 54.391,30.253 54.391,30.162 L54.391,29.957 C54.391,29.004 54.368,28.051 54.323,27.098 C54.277,26.144 54.141,25.191 53.915,24.238 L53.778,23.897 L53.778,24.306 C53.778,24.670 53.801,25.044 53.847,25.429 C53.891,25.816 53.915,26.212 53.915,26.621 C53.915,27.484 53.778,28.369 53.506,29.277 C53.415,29.685 53.290,30.093 53.132,30.502 C52.972,30.911 52.825,31.342 52.689,31.796 C52.598,32.068 52.529,32.341 52.485,32.613 C52.439,32.885 52.371,33.135 52.281,33.362 C52.053,33.998 51.656,34.724 51.089,35.541 C50.521,36.358 50.034,37.039 49.625,37.583 L48.944,38.537 C48.989,38.537 49.023,38.526 49.046,38.503 C49.069,38.480 49.103,38.468 49.148,38.468 L49.353,38.400 C49.625,38.400 49.670,38.492 49.489,38.673 C48.580,39.716 47.503,40.511 46.255,41.056 C45.006,41.601 43.678,41.873 42.271,41.873 L42.203,41.873 C42.067,41.873 41.908,41.827 41.727,41.737 L41.386,41.669 C41.022,41.533 40.648,41.385 40.263,41.226 C39.877,41.067 39.524,40.874 39.207,40.647 C38.617,40.239 38.118,39.694 37.709,39.013 C37.301,38.332 36.983,37.607 36.756,36.834 C36.529,36.063 36.358,35.268 36.246,34.451 C36.132,33.634 36.075,32.909 36.075,32.272 C36.075,31.910 36.086,31.523 36.109,31.115 C36.132,30.706 36.143,30.321 36.143,29.957 C36.052,30.230 36.007,30.582 36.007,31.013 C36.007,31.445 36.007,31.841 36.007,32.204 C36.007,32.296 35.984,32.409 35.939,32.545 C35.893,32.681 35.780,32.749 35.599,32.749 C35.507,32.749 35.439,32.704 35.394,32.613 C35.349,32.522 35.326,32.432 35.326,32.341 C35.326,31.523 35.383,30.628 35.497,29.651 C35.609,28.675 35.780,27.700 36.007,26.723 C36.234,25.747 36.506,24.794 36.824,23.863 C37.141,22.934 37.528,22.127 37.982,21.446 C38.118,21.265 38.277,20.947 38.458,20.493 C38.503,20.448 38.537,20.403 38.561,20.357 C38.583,20.312 38.617,20.266 38.663,20.221 L39.956,18.655 C40.183,18.337 40.399,18.031 40.603,17.735 C40.808,17.441 40.910,17.180 40.910,16.952 C40.818,17.044 40.660,17.236 40.433,17.531 C40.205,17.827 39.933,18.155 39.616,18.518 L39.003,19.335 C38.912,19.427 38.809,19.540 38.697,19.676 C38.583,19.812 38.481,19.880 38.390,19.880 C38.299,19.880 38.277,19.812 38.322,19.676 C38.458,19.267 38.741,18.712 39.173,18.008 C39.604,17.304 40.093,16.612 40.637,15.931 C41.182,15.250 41.737,14.661 42.305,14.161 C42.872,13.662 43.337,13.412 43.701,13.412 C44.291,13.412 44.655,13.684 44.791,14.229 C44.835,14.411 44.859,14.569 44.859,14.705 C44.859,14.841 44.903,14.978 44.995,15.114 L45.199,15.522 L45.472,15.659 C45.562,15.750 45.630,15.841 45.676,15.931 C45.676,16.067 45.721,16.135 45.812,16.135 L46.152,16.748 L46.833,17.293 C46.924,17.339 47.014,17.407 47.106,17.497 C47.150,17.543 47.218,17.837 47.310,18.382 C47.627,18.474 47.967,18.518 48.331,18.518 C48.694,18.518 49.057,18.518 49.421,18.518 C49.920,18.518 50.396,18.360 50.851,18.042 L51.191,17.905 C51.418,17.725 51.758,17.633 52.212,17.633 C52.757,17.633 53.120,17.883 53.302,18.382 L53.506,18.655 C53.597,18.836 53.665,18.950 53.710,18.995 L53.915,19.472 L54.459,20.357 C54.732,20.721 54.890,21.038 54.936,21.310 C55.026,21.582 55.095,22.003 55.140,22.570 ZM50.919,26.621 L50.851,27.098 C50.759,27.461 50.578,28.063 50.306,28.902 C50.034,29.742 49.738,30.582 49.421,31.421 C49.103,32.262 48.785,32.999 48.467,33.634 C48.149,34.270 47.899,34.587 47.719,34.587 C47.627,34.587 47.582,34.543 47.582,34.451 L47.582,34.247 L48.399,32.272 C48.808,31.183 49.193,30.025 49.557,28.800 C49.920,27.574 50.102,26.372 50.102,25.191 C50.102,24.919 50.078,24.556 50.034,24.102 C49.988,23.648 49.908,23.206 49.795,22.774 C49.681,22.343 49.511,21.980 49.285,21.685 C49.057,21.390 48.740,21.242 48.331,21.242 L47.582,21.310 C47.582,21.356 47.514,21.378 47.378,21.378 L47.106,21.378 C46.788,21.288 46.493,21.129 46.221,20.902 C45.903,20.993 45.494,21.220 44.995,21.582 C44.495,21.946 44.008,22.343 43.531,22.774 C43.054,23.206 42.600,23.648 42.169,24.102 C41.737,24.556 41.431,24.919 41.250,25.191 L40.978,25.532 C40.886,25.759 40.750,25.940 40.569,26.076 L40.297,26.417 C40.251,26.462 40.183,26.485 40.093,26.485 L40.024,26.417 L39.956,26.280 L39.888,26.076 L39.684,26.553 C39.412,27.325 39.150,28.255 38.901,29.345 C38.651,30.434 38.526,31.365 38.526,32.136 C38.526,32.591 38.549,33.067 38.595,33.566 C38.639,34.066 38.685,34.565 38.731,35.064 C38.731,35.336 38.663,35.473 38.526,35.473 C38.435,35.473 38.356,35.394 38.288,35.234 C38.220,35.076 38.163,34.951 38.118,34.860 L37.982,34.383 C37.982,35.518 38.401,36.506 39.241,37.345 C40.081,38.186 41.091,38.605 42.271,38.605 C42.498,38.605 42.793,38.571 43.157,38.503 C43.519,38.435 43.894,38.344 44.280,38.230 C44.665,38.117 45.029,37.992 45.369,37.856 C45.710,37.720 45.971,37.583 46.152,37.447 C46.788,36.902 47.389,36.199 47.957,35.336 C48.524,34.475 49.023,33.555 49.455,32.579 C49.886,31.603 50.238,30.616 50.510,29.617 C50.783,28.619 50.919,27.734 50.919,26.961 L50.919,26.621 ZM44.655,30.911 C44.200,31.501 43.690,32.000 43.123,32.409 C42.554,32.817 41.999,33.021 41.454,33.021 C41.318,33.021 41.250,32.953 41.250,32.817 C41.159,32.591 41.182,32.477 41.318,32.477 L41.727,32.068 C42.044,31.705 42.294,31.285 42.476,30.808 C42.657,30.332 42.816,29.821 42.952,29.277 C43.088,28.732 43.213,28.199 43.327,27.676 C43.440,27.155 43.542,26.689 43.633,26.280 L43.633,26.076 C43.633,25.895 43.678,25.804 43.769,25.804 L43.837,25.668 C43.928,25.487 44.064,25.441 44.246,25.532 C44.609,25.623 45.029,25.872 45.506,26.280 C45.982,26.689 46.221,27.030 46.221,27.302 C46.221,27.802 46.073,28.381 45.778,29.038 C45.482,29.697 45.108,30.321 44.655,30.911 ZM32.176,34.600 C32.094,36.444 32.053,38.328 32.053,40.253 L32.135,41.244 C32.135,41.464 32.189,41.850 32.300,42.399 C32.465,42.729 32.548,43.115 32.548,43.555 C32.548,43.720 32.437,43.912 32.218,44.132 L31.722,44.545 L31.392,45.288 L31.227,46.030 C31.172,46.526 31.103,46.842 31.021,46.980 C30.938,47.116 30.677,47.186 30.237,47.186 C30.126,47.075 30.030,47.007 29.948,46.980 C29.865,46.951 29.796,46.910 29.742,46.856 L29.411,46.608 C29.191,46.443 28.999,46.347 28.834,46.320 C28.669,46.291 28.448,46.223 28.174,46.113 C27.953,46.058 27.705,45.961 27.431,45.824 C27.155,45.686 26.963,45.535 26.853,45.370 L26.193,44.380 L25.863,44.215 L25.367,44.132 C24.652,44.132 23.964,43.583 23.304,42.482 C22.644,41.382 22.052,40.130 21.530,38.727 C21.006,37.323 20.552,35.920 20.168,34.517 C19.782,33.114 19.535,32.138 19.425,31.587 L19.343,31.010 L19.177,30.845 C19.012,31.340 18.847,31.863 18.682,32.413 C18.517,32.963 18.324,33.459 18.105,33.898 C17.939,34.393 17.651,35.260 17.238,36.498 C16.825,37.736 16.413,39.015 16.000,40.336 C15.587,41.656 15.216,42.894 14.886,44.050 C14.556,45.205 14.391,45.948 14.391,46.278 L14.638,47.021 L14.638,47.434 C14.583,47.653 14.391,47.764 14.060,47.764 C13.840,47.764 13.661,47.750 13.524,47.723 C13.386,47.694 13.235,47.653 13.070,47.599 L11.997,47.434 C11.886,47.434 11.804,47.419 11.750,47.392 C11.694,47.364 11.612,47.351 11.502,47.351 L11.337,47.269 C11.116,47.158 10.978,47.075 10.924,47.021 L10.347,46.773 L10.182,46.856 C10.071,46.910 9.934,46.938 9.769,46.938 L9.604,47.021 C9.439,47.021 9.410,46.966 9.521,46.856 L9.604,46.691 C9.274,46.580 8.915,46.305 8.531,45.866 L8.036,45.288 L6.798,44.545 C6.687,44.434 6.604,44.366 6.550,44.339 C6.495,44.310 6.439,44.242 6.385,44.132 C6.330,44.021 6.315,43.953 6.344,43.926 C6.371,43.898 6.385,43.856 6.385,43.802 C6.439,43.802 6.468,43.747 6.468,43.637 L6.550,43.555 C6.769,43.280 6.963,43.018 7.128,42.770 C7.293,42.523 7.458,42.262 7.623,41.987 C7.733,41.656 7.871,41.340 8.036,41.037 C8.201,40.736 8.337,40.418 8.448,40.088 C8.778,39.318 9.163,38.549 9.604,37.777 C9.604,37.668 9.658,37.668 9.769,37.777 L9.851,37.777 C10.236,36.182 10.483,34.587 10.594,32.990 C10.704,31.395 10.759,29.772 10.759,28.121 C10.759,27.516 10.718,26.815 10.635,26.016 C10.553,25.220 10.429,24.407 10.264,23.582 C10.099,22.756 9.893,21.959 9.645,21.188 C9.397,20.418 9.136,19.814 8.861,19.373 L7.293,17.557 C7.182,17.503 7.128,17.392 7.128,17.227 L7.128,16.979 C7.128,16.760 7.210,16.636 7.375,16.608 C7.540,16.581 7.705,16.539 7.871,16.484 L7.953,16.484 C8.172,16.484 8.352,16.498 8.490,16.525 C8.626,16.554 8.805,16.567 9.026,16.567 L9.356,16.732 C9.521,16.787 9.686,16.842 9.851,16.897 C10.016,16.952 10.182,16.979 10.347,16.979 L10.924,16.732 C11.034,16.677 11.172,16.622 11.337,16.567 C11.502,16.512 11.667,16.484 11.832,16.484 C12.107,16.484 12.505,16.595 13.029,16.814 C13.551,17.035 13.895,17.227 14.060,17.392 L14.803,17.887 L16.371,18.465 C16.756,18.576 16.949,18.768 16.949,19.042 C17.003,19.153 17.018,19.249 16.990,19.331 C16.962,19.414 16.949,19.511 16.949,19.620 C16.838,19.731 16.770,19.827 16.743,19.909 C16.714,19.992 16.646,20.061 16.536,20.115 L16.371,20.363 C16.316,20.418 16.219,20.666 16.083,21.106 C15.945,21.547 15.794,22.042 15.629,22.591 C15.188,24.132 14.789,25.563 14.432,26.883 C14.073,28.204 13.772,29.524 13.524,30.845 C13.276,32.165 13.097,33.527 12.988,34.930 C12.877,36.333 12.822,37.860 12.822,39.510 L12.822,40.253 L12.905,40.831 L14.143,38.355 C14.418,37.806 14.638,37.282 14.803,36.787 C14.857,36.512 14.913,36.238 14.968,35.962 C15.022,35.687 15.105,35.412 15.216,35.136 C15.491,34.201 15.780,33.293 16.083,32.413 C16.384,31.533 16.646,30.625 16.867,29.689 C16.921,29.470 16.976,29.235 17.032,28.988 C17.086,28.740 17.114,28.480 17.114,28.204 L16.949,27.956 C16.949,27.846 16.935,27.764 16.908,27.708 C16.880,27.654 16.867,27.572 16.867,27.461 C16.921,27.077 17.003,26.485 17.114,25.686 C17.224,24.889 17.389,24.353 17.609,24.077 C17.664,23.967 17.802,23.912 18.022,23.912 L18.765,23.912 L19.755,24.077 C19.809,23.967 19.906,23.829 20.044,23.664 C20.181,23.499 20.333,23.417 20.498,23.417 C20.608,23.417 20.773,23.472 20.993,23.582 L21.323,23.912 L21.901,23.499 C22.011,23.390 22.135,23.293 22.272,23.210 C22.409,23.128 22.588,23.087 22.809,23.087 C23.249,23.087 23.593,23.252 23.841,23.582 C24.088,23.912 24.212,24.242 24.212,24.572 L24.212,25.315 C24.212,25.480 24.157,25.673 24.047,25.893 L23.964,26.388 C23.853,26.664 23.771,26.924 23.717,27.172 C23.661,27.420 23.634,27.681 23.634,27.956 C23.634,29.002 23.675,30.019 23.758,31.010 C23.841,32.000 23.936,32.990 24.047,33.981 L24.129,34.559 C24.239,34.889 24.239,35.247 24.129,35.632 L24.129,35.714 C24.019,35.935 23.936,36.044 23.882,36.044 C23.771,36.044 23.634,35.728 23.469,35.095 C23.304,34.463 23.166,34.063 23.057,33.898 C23.111,34.449 23.249,35.136 23.469,35.962 C23.688,36.787 23.936,37.599 24.212,38.396 C24.487,39.195 24.775,39.882 25.079,40.460 C25.380,41.037 25.669,41.326 25.945,41.326 L26.110,41.079 L26.275,40.253 C26.385,39.814 26.467,39.333 26.523,38.809 C26.577,38.287 26.605,37.777 26.605,37.282 C26.605,36.238 26.660,35.178 26.771,34.105 C26.880,33.032 26.990,31.946 27.101,30.845 L27.348,29.937 C27.348,29.662 27.431,29.442 27.596,29.277 L27.926,28.534 L27.926,27.543 C27.926,27.324 27.912,27.145 27.885,27.007 C27.856,26.870 27.843,26.718 27.843,26.553 C27.843,25.453 27.898,24.380 28.008,23.334 C28.118,22.290 28.174,21.244 28.174,20.198 L28.174,19.868 C28.174,19.814 28.228,19.676 28.339,19.455 L28.504,19.290 C28.504,18.135 28.380,16.801 28.132,15.287 C27.885,13.775 27.499,12.275 26.977,10.789 C26.453,9.304 25.766,7.970 24.913,6.787 C24.060,5.604 23.028,4.820 21.819,4.434 C21.763,4.434 21.681,4.380 21.571,4.269 L21.571,4.104 L21.488,4.022 C21.598,3.857 21.736,3.774 21.901,3.774 C22.066,3.774 22.203,3.802 22.314,3.857 C23.193,3.968 23.895,4.215 24.418,4.599 C24.941,4.985 25.477,5.480 26.028,6.085 L26.688,6.745 L26.193,6.002 C26.137,5.948 26.110,5.837 26.110,5.672 C26.110,5.507 26.164,5.480 26.275,5.590 C26.825,5.810 27.293,6.250 27.678,6.910 L28.751,8.561 L28.669,8.066 C28.669,7.956 28.723,7.901 28.834,7.901 C28.943,8.011 29.026,8.080 29.081,8.107 C29.136,8.135 29.191,8.204 29.246,8.313 L29.329,8.478 C30.429,10.075 31.186,11.780 31.599,13.595 C32.011,15.411 32.327,17.255 32.548,19.125 L32.630,20.198 C32.630,20.584 32.616,20.955 32.589,21.312 C32.561,21.671 32.575,22.014 32.630,22.344 L32.713,22.921 C32.767,22.977 32.795,23.032 32.795,23.087 C32.795,23.142 32.822,23.225 32.878,23.334 L32.878,24.902 C32.878,25.618 32.878,26.320 32.878,27.007 C32.878,27.696 32.822,28.397 32.713,29.111 C32.437,30.927 32.259,32.757 32.176,34.600 Z"/>
</g>
</svg>