<svg xmlns="http://www.w3.org/2000/svg" xmlns:xlink="http://www.w3.org/1999/xlink" width="168" height="74" viewBox="0 0 168 74">
  <defs>
    <style>
      .cls-1 {
        fill: #fff;
        fill-rule: evenodd;
        filter: url(#filter);
      }
    </style>
    <filter id="filter" x="323" y="1724" width="168" height="74" filterUnits="userSpaceOnUse">
      <feOffset result="offset" dy="3" in="SourceAlpha"/>
      <feGaussianBlur result="blur" stdDeviation="2.646"/>
      <feFlood result="flood" flood-opacity="0.11"/>
      <feComposite result="composite" operator="in" in2="blur"/>
      <feBlend result="blend" in="SourceGraphic"/>
    </filter>
  </defs>
  <path id="worea_kopia" data-name="worea kopia" class="cls-1" d="M390.455,1747.04a2.182,2.182,0,0,1,1.392-.37,1.443,1.443,0,0,1,1.484,1.02l0.279,0.37a1.947,1.947,0,0,0,.278.46l0.278,0.65,0.743,1.21a3.15,3.15,0,0,1,.649,1.3,7.894,7.894,0,0,1,.279,1.71c0.06,0.78.123,1.58,0.185,2.42s0.093,1.65.093,2.45v1.95c0,0.37-.016,1.01-0.046,1.91a4.2,4.2,0,0,1-.325,1.8,0.362,0.362,0,0,1-.371.28c-0.063.07-.186,0.03-0.371-0.09a0.528,0.528,0,0,1-.186-0.37v-0.28q0-1.95-.093-3.9a21.1,21.1,0,0,0-.557-3.89l-0.185-.47v0.56a12.709,12.709,0,0,0,.093,1.53,14.158,14.158,0,0,1,.092,1.62,12.512,12.512,0,0,1-.556,3.62,11.436,11.436,0,0,1-.51,1.67q-0.327.84-.6,1.77a7.046,7.046,0,0,0-.279,1.11,5,5,0,0,1-.278,1.02,13.1,13.1,0,0,1-1.624,2.97c-0.774,1.11-1.438,2.04-1.995,2.78l-0.928,1.3a0.164,0.164,0,0,0,.14-0.05,0.188,0.188,0,0,1,.139-0.04l0.278-.09c0.371,0,.432.12,0.186,0.37a12.293,12.293,0,0,1-4.407,3.24,13.31,13.31,0,0,1-5.428,1.12h-0.093a1.561,1.561,0,0,1-.65-0.19l-0.464-.09q-0.743-.285-1.53-0.6a7.194,7.194,0,0,1-1.438-.79,7.118,7.118,0,0,1-2.042-2.23,12.817,12.817,0,0,1-1.3-2.97,21.924,21.924,0,0,1-.7-3.25,21.573,21.573,0,0,1-.233-2.97c0-.49.015-1.02,0.047-1.57s0.046-1.08.046-1.58a4.63,4.63,0,0,0-.185,1.44v1.62a1.578,1.578,0,0,1-.093.47,0.43,0.43,0,0,1-.464.27,0.3,0.3,0,0,1-.278-0.18,0.8,0.8,0,0,1-.093-0.37,31.831,31.831,0,0,1,.232-3.67,35.383,35.383,0,0,1,.7-3.99,39.949,39.949,0,0,1,1.113-3.89,14.131,14.131,0,0,1,1.578-3.3,6.006,6.006,0,0,0,.649-1.3,0.753,0.753,0,0,0,.139-0.18,0.963,0.963,0,0,1,.139-0.19l1.763-2.13c0.309-.43.6-0.85,0.882-1.25a1.985,1.985,0,0,0,.417-1.07,9.026,9.026,0,0,0-.649.79c-0.311.4-.682,0.85-1.114,1.34l-0.835,1.12a4.861,4.861,0,0,0-.417.46,0.607,0.607,0,0,1-.418.28c-0.125,0-.155-0.09-0.093-0.28a12.036,12.036,0,0,1,1.16-2.27,27.779,27.779,0,0,1,2-2.83,19.594,19.594,0,0,1,2.273-2.42,3.282,3.282,0,0,1,1.9-1.02,1.378,1.378,0,0,1,1.485,1.12,2.816,2.816,0,0,1,.093.65,0.967,0.967,0,0,0,.185.55l0.278,0.56,0.371,0.19a1.3,1.3,0,0,1,.279.37c0,0.18.061,0.28,0.185,0.28l0.464,0.83,0.928,0.74a1.835,1.835,0,0,1,.371.28,4.758,4.758,0,0,1,.279,1.21,5.18,5.18,0,0,0,1.391.18h1.485a3.3,3.3,0,0,0,1.948-.65Zm-0.371,11.87-0.093.65q-0.186.75-.742,2.46c-0.371,1.15-.774,2.29-1.206,3.44a32.74,32.74,0,0,1-1.3,3.01c-0.433.87-.774,1.3-1.021,1.3a0.164,0.164,0,0,1-.185-0.19v-0.27l1.113-2.7q0.836-2.22,1.577-4.73a17.244,17.244,0,0,0,.743-4.91c0-.38-0.032-0.87-0.093-1.49a11.778,11.778,0,0,0-.325-1.81,4.081,4.081,0,0,0-.7-1.48,1.556,1.556,0,0,0-1.3-.61l-1.02.1q0,0.09-.279.09h-0.371a3.217,3.217,0,0,1-1.206-.65,5.893,5.893,0,0,0-1.67.93,22.671,22.671,0,0,0-2,1.62c-0.649.59-1.268,1.19-1.855,1.81a11.43,11.43,0,0,0-1.253,1.49l-0.371.46a1.66,1.66,0,0,1-.557.74l-0.371.47a0.386,0.386,0,0,1-.278.09l-0.093-.09-0.093-.19-0.093-.28-0.278.65a34.723,34.723,0,0,0-1.067,3.81,17.357,17.357,0,0,0-.51,3.8q0,0.93.092,1.95t0.186,2.04c0,0.37-.093.56-0.278,0.56a0.421,0.421,0,0,1-.325-0.33c-0.093-.21-0.171-0.38-0.232-0.51l-0.185-.65a5.532,5.532,0,0,0,1.716,4.04,5.638,5.638,0,0,0,4.129,1.71,6.247,6.247,0,0,0,1.206-.14,13.668,13.668,0,0,0,1.531-.37,14.241,14.241,0,0,0,1.484-.51,4.8,4.8,0,0,0,1.067-.55,13.718,13.718,0,0,0,2.459-2.88,25.579,25.579,0,0,0,2.041-3.76,28.621,28.621,0,0,0,1.438-4.03,13.977,13.977,0,0,0,.557-3.62v-0.47ZM377,1766.89l0.556-.55a5.723,5.723,0,0,0,1.021-1.72,18.591,18.591,0,0,0,.649-2.09c0.186-.74.356-1.47,0.511-2.18s0.293-1.34.417-1.9v-0.28c0-.24.061-0.37,0.186-0.37l0.093-.18a0.368,0.368,0,0,1,.556-0.19,4.422,4.422,0,0,1,1.717,1.02,2.237,2.237,0,0,1,.974,1.39,5.954,5.954,0,0,1-.6,2.37,12.549,12.549,0,0,1-1.531,2.55,10.22,10.22,0,0,1-2.088,2.04,3.883,3.883,0,0,1-2.273.84,0.249,0.249,0,0,1-.278-0.28c-0.125-.31-0.093-0.47.093-0.47h0Zm46.066,8.96a26.018,26.018,0,0,0,4.407,4.59,23.586,23.586,0,0,0,5.381,3.25,26.582,26.582,0,0,0,6.773,1.85l2.134,0.28a1.708,1.708,0,0,0,.742-0.14,1.776,1.776,0,0,0,.464-0.32l0.279-.19c0-.06.092-0.09,0.278-0.09v0.18a2.216,2.216,0,0,1-1.948,1.21,32.177,32.177,0,0,1-4.268-.28,18.953,18.953,0,0,1-4.176-1.02,2.7,2.7,0,0,1-.835-0.14c-0.31-.09-0.619-0.2-0.927-0.32l-0.743-.28,0.186,0.28c0.123,0.18.093,0.24-.093,0.18a9.791,9.791,0,0,1-3.851-1.67,33.768,33.768,0,0,1-4.082-3.2,39.315,39.315,0,0,1-3.618-3.71c-1.083-1.27-1.965-2.37-2.645-3.29q-1.578-2.505-3.433-5.01-0.929-1.3-1.9-2.46a16.957,16.957,0,0,0-2.087-2.09l-0.928-.46a14.884,14.884,0,0,0-.7,2.73q-0.326,1.815-.557,3.9c-0.155,1.39-.263,2.74-0.324,4.04s-0.093,2.35-.093,3.15v1.02l-0.093.37a7.455,7.455,0,0,1-.417.88,0.829,0.829,0,0,1-.789.42,4.259,4.259,0,0,1-1.206-.28,5.348,5.348,0,0,1-1.114-.46l-2.319-1.11c-0.99-.31-1.485-0.72-1.485-1.21a7.71,7.71,0,0,1,.139-1.07c0.093-.52.186-1.08,0.279-1.67a13.679,13.679,0,0,1,.371-1.67c0.154-.52.262-0.91,0.325-1.16,0-.24.06-0.18,0.185,0.19v1.11l0.371,0.93,0.186,0.09a0.085,0.085,0,0,1,.093.1v0.09l0.093,0.55a8.945,8.945,0,0,0,1.113-2.5q0.741-2.13,1.438-4.73c0.464-1.73.865-3.44,1.206-5.11a20.8,20.8,0,0,0,.51-3.52v-0.7a2.212,2.212,0,0,1,.186-0.79l0.464-1.57q0.185-.75.371-1.53a6.769,6.769,0,0,0,.186-1.53,0.972,0.972,0,0,0-.279-0.89,1.473,1.473,0,0,0-.649-0.14h-0.928a0.258,0.258,0,0,1-.186-0.18c0-.06.061-0.09,0.186-0.09a1.9,1.9,0,0,1,1.021-.19,1.94,1.94,0,0,1,.6-0.09,1.192,1.192,0,0,0,.51-0.09l0.278-.28-0.278-.28-0.371-.09a5.594,5.594,0,0,0-.974.09c-0.341.06-.758,0.15-1.253,0.28-0.433.12-.835,0.25-1.206,0.37a8.992,8.992,0,0,1-1.021.28l-0.742.37h0.371a0.75,0.75,0,0,0,.464.09l0.186,0.09c0.308,0.07.308,0.16,0,.28l-2.5.74a0.425,0.425,0,0,0-.186.05,0.653,0.653,0,0,1-.278.05l-0.464.09a1.586,1.586,0,0,1-1.485-.79,3.146,3.146,0,0,1-.464-1.62,0.259,0.259,0,0,1-.046-0.24,0.164,0.164,0,0,0,.046-0.13v-0.28a4.548,4.548,0,0,0-.278-1.53,8.531,8.531,0,0,0-.65-1.44l-0.742-1.76a1.082,1.082,0,0,1-.093-0.75,0.643,0.643,0,0,1,.464-0.18,1.748,1.748,0,0,1,.928.28l0.835,0.74a5.153,5.153,0,0,0,2.459,1.62,14.653,14.653,0,0,0,2.922.42c0.5,0,1.021.02,1.578,0.05s1.081,0.07,1.577.14q0.556,0,.093.27l1.67-.37,0.278-.18a0.2,0.2,0,0,0,.14-0.05,0.19,0.19,0,0,1,.139-0.05l1.948-.37,1.948-.83a0.77,0.77,0,0,1,.325-0.09,0.8,0.8,0,0,0,.325-0.1l0.557-.09a10.832,10.832,0,0,1,1.763-.23,10.876,10.876,0,0,0,1.763-.23,17.2,17.2,0,0,0,2.365-.33,12.2,12.2,0,0,0,2.181-.69c0.185-.07.371-0.13,0.557-0.19a2.476,2.476,0,0,1,.742-0.09l0.928-.1h0.092a0.369,0.369,0,0,1,.232.05,0.194,0.194,0,0,0,.14.05,0.751,0.751,0,0,1,.278.46v0.19a0.26,0.26,0,0,1,.093.18,0.7,0.7,0,0,0,.092.28l0.279,1.21a1.53,1.53,0,0,1,.324.51,1.484,1.484,0,0,1,.14.6v0.28l0.371,0.74a0.459,0.459,0,0,1,.232.19,0.683,0.683,0,0,0,.139.18,0.476,0.476,0,0,1,.093.47,6.193,6.193,0,0,1-1.81,2.55,39.666,39.666,0,0,1-3.711,3.24c-1.392,1.09-2.753,2.09-4.082,3.02s-2.273,1.58-2.83,1.95l0.093,0.18,0.371,0.19a3.815,3.815,0,0,1,1.252,1.3,25.569,25.569,0,0,1,1.346,2.22c0.432,0.81.819,1.58,1.159,2.32s0.572,1.3.7,1.67c0.247,0.38.216,0.56-.092,0.56a0.768,0.768,0,0,1-.464-0.46c-0.186-.31-0.311-0.53-0.371-0.65l-0.65-1.02a8.344,8.344,0,0,0,.417.92q0.325,0.66.7,1.35c0.246,0.46.463,0.88,0.649,1.25s0.309,0.62.371,0.75A56.52,56.52,0,0,0,423.068,1775.85Zm-9.232-26.49a1.992,1.992,0,0,0,.046.41,0.36,0.36,0,0,1-.046.33,3.042,3.042,0,0,1-.418.51c-0.155.16-.325,0.32-0.51,0.51l-2.041,1.95a3.22,3.22,0,0,0-.464,1.11q-0.279.93-.557,1.95t-0.51,1.95a6.58,6.58,0,0,0-.232,1.21,1.472,1.472,0,0,0,.6-0.24,5.851,5.851,0,0,0,.881-0.6q2.412-1.575,4.779-3.43a42.755,42.755,0,0,0,4.5-4.09l1.392-1.67,0.835-1.48q-3.711.18-7.144,0.56l-0.928.18-0.464.19,0.093,0.18a0.177,0.177,0,0,0,.046.14,0.192,0.192,0,0,1,.047.14Zm14.844,12.99-0.186-.84v-0.55l0.186-.93a3.791,3.791,0,0,1,.649-1.9,3.477,3.477,0,0,1,1.949-.33l1.484-.09,0.279-1.39a0.66,0.66,0,0,0-.371-0.75c-0.063,0-.093-0.01-0.093-0.04s0.03-.05.093-0.05l0.556-.65a2.39,2.39,0,0,0,.278-0.69c0.124-.41.247-0.85,0.372-1.35s0.232-.97.324-1.44a6.024,6.024,0,0,0,.139-0.88l-0.649.09-0.835.28a4.508,4.508,0,0,1-1.67.37,0.632,0.632,0,0,1-.742-0.46v-0.65a1.485,1.485,0,0,1,.185-0.65l0.093-.28a4.555,4.555,0,0,0,.278-0.65,2.048,2.048,0,0,0,.093-0.65,6.319,6.319,0,0,0-.093-1.02q-0.093-.555-0.185-1.02a3.351,3.351,0,0,1,.371-1.67,0.194,0.194,0,0,0,.139-0.04,0.736,0.736,0,0,1,.232-0.14,0.194,0.194,0,0,1,.139.04,0.365,0.365,0,0,0,.232.05l0.279,0.18a4.8,4.8,0,0,0,1.391.19h1.392a1.66,1.66,0,0,0,1.067-.23,1.742,1.742,0,0,0,.325-0.42l0.092-.18c0-.13.093-0.19,0.279-0.19l0.093-.09H437.4a4.584,4.584,0,0,0,.65.55l0.835,0.75,1.02,0.65a1.4,1.4,0,0,1,.464.55,1.464,1.464,0,0,1,.186.56l3.8,0.28-0.093-.19a0.4,0.4,0,0,1,.093-0.28,0.84,0.84,0,0,1,.371-0.09l0.557-.19h0.881a1.476,1.476,0,0,0,.6-0.09c0.5-.06,1.021-0.14,1.578-0.23s1.113-.2,1.67-0.32c0.617-.13,1.206-0.24,1.763-0.33a9.912,9.912,0,0,1,1.577-.14,1.333,1.333,0,0,1,.835.28,1.1,1.1,0,0,1,.371.93v0.46l0.093,0.19a0.836,0.836,0,0,0,.093.37l0.092,0.09a0.614,0.614,0,0,0,.047.28,0.645,0.645,0,0,1,.046.28,3.32,3.32,0,0,1-.742,1.3l-0.557.83,0.371,0.37c0.124,0.13.247,0.25,0.371,0.37a0.646,0.646,0,0,1,.186.47,0.546,0.546,0,0,1-.557.55c-0.371.07-.742,0.13-1.113,0.19-1.484,0-2.969.05-4.454,0.14a30.906,30.906,0,0,0-4.453.6q-0.279.09-1.3,0.33c-0.682.15-1.408,0.34-2.18,0.55s-1.47.42-2.088,0.61a3.314,3.314,0,0,0-1.113.46,4.073,4.073,0,0,0-.511,1.25,6.292,6.292,0,0,0-.325,1.44,0.441,0.441,0,0,0,.279.47l0.557,0.18h0.371a0.362,0.362,0,0,1,.371.28v0.09l-0.093.09a0.54,0.54,0,0,0-.371.1l-1.021.18-0.371.47c0.8,0,1.608-.02,2.413-0.05s1.607-.05,2.412-0.05l2.876-.09h1.67q1.392,0,3.016.09c1.081,0.07,2.1.13,3.061,0.19a4.711,4.711,0,0,1,1.717.28l2.227,0.37a0.3,0.3,0,0,1,.278.18,0.262,0.262,0,0,1-.093.19h-0.185a1.338,1.338,0,0,1-.557.09h-0.557a7.208,7.208,0,0,1-1.438.1q-0.974,0-2,.09-1.113,0-2.041.09c-0.619.06-1.083,0.13-1.392,0.19a12.1,12.1,0,0,1-1.3.28l-1.3.18-1.113.19a32.41,32.41,0,0,1-3.386.74,29.913,29.913,0,0,0-3.387.74l-1.206.46q-0.187,1.77-.464,3.48a21.208,21.208,0,0,0-.278,3.39v0.7a2.338,2.338,0,0,0,.185.88,0.9,0.9,0,0,0,.742.93l2.227-.38a0.2,0.2,0,0,1,.139.05,0.194,0.194,0,0,0,.14.05,0.536,0.536,0,0,1-.186.37,0.545,0.545,0,0,1-.371.18l-1.763.56-0.186.37,1.67,0.19a17.359,17.359,0,0,0,2.181-.14,17.331,17.331,0,0,1,2.18-.14,6.383,6.383,0,0,0,1.3-.14c0.432-.09.866-0.17,1.3-0.23a1.533,1.533,0,0,1,.65.18l0.092,0.1q0.186,0,0,.18a0.517,0.517,0,0,0-.371.19l-0.278.09c-0.619.19-1.192,0.34-1.717,0.46s-1.1.25-1.716,0.38l-1.206.27a19.082,19.082,0,0,0,4.5-.83,33.718,33.718,0,0,0,4.129-1.67q0.834-.375,1.484-0.6a3.3,3.3,0,0,1,1.114-.24,2.856,2.856,0,0,0,1.206-.37,8.709,8.709,0,0,0,1.484-.93c0.494-.37.989-0.75,1.485-1.15s0.9-.73,1.206-0.98a1.836,1.836,0,0,1,.325-0.42,0.652,0.652,0,0,1,.417-0.23c0.247,0,.278.09,0.093,0.28a3.4,3.4,0,0,1-1.113,1.58c-0.62.55-1.315,1.11-2.088,1.67s-1.563,1.06-2.366,1.53-1.454.85-1.949,1.16l-0.556.46,0.928-.56c0.308-.12.633-0.26,0.974-0.41a2.1,2.1,0,0,1,.881-0.23l0.186,0.18c0,0.5-.758,1.13-2.273,1.9a49.616,49.616,0,0,1-5.289,2.28q-3.017,1.11-5.984,2.08t-4.361,1.35q-0.279,0-.279.18l-1.391.28-1.67.19a14.66,14.66,0,0,0-2.969.83,1.339,1.339,0,0,0-.464.1,1.575,1.575,0,0,1-.464.09,0.751,0.751,0,0,1-.743-0.93,1.773,1.773,0,0,1,.233-0.88,6.707,6.707,0,0,1,.51-0.79l0.464-.65,0.185-.74-0.185-.37-0.65-.47a3.614,3.614,0,0,1-.51-0.78,10.893,10.893,0,0,1-.51-1.07,0.471,0.471,0,0,1,.093-0.46,1.477,1.477,0,0,1,.742-0.65l2.227-.93c0.371-.13.772-0.26,1.206-0.42l1.206-.42-0.093-1.11-0.278-1.02a1.653,1.653,0,0,1-.186-0.74v-2.14c0-.49.031-1.05,0.093-1.67s0.093-1.17.093-1.67h-0.743l-0.742.28c-0.248.06-.48,0.13-0.7,0.19a2.6,2.6,0,0,1-.7.09,0.656,0.656,0,0,1-.742-0.74,1.36,1.36,0,0,1,.139-0.51,0.686,0.686,0,0,1,.418-0.42Zm21.711-12.25a0.64,0.64,0,0,0-.557-0.33c-0.371-.09-0.8-0.16-1.3-0.23s-0.959-.1-1.392-0.14-0.742-.04-0.927-0.04h-1.485c-0.742,0-1.516.01-2.319,0.04s-1.547.08-2.227,0.14a2.654,2.654,0,0,0-1.206.28,3.976,3.976,0,0,0-.743,1.39,3.371,3.371,0,0,0-.231.93,1.6,1.6,0,0,1-.233.74,9.23,9.23,0,0,0,2.227-.46c1.422-.31,2.814-0.63,4.175-0.97s2.752-.64,4.176-0.89Zm-14.613,28.76c-0.96.19-1.934,0.4-2.923,0.65-0.433.12-.867,0.26-1.3,0.42a3.959,3.959,0,0,1-1.3.23l-0.649.19a11.246,11.246,0,0,0,1.3-.19q1.019-.18,2.366-0.51c0.895-.22,1.823-0.46,2.783-0.74s1.809-.51,2.552-0.7C437.68,1778.46,436.736,1778.68,435.778,1778.86Zm-0.789-15.03a5.7,5.7,0,0,1-.093.74c-0.062.37-.124,0.78-0.185,1.21l0.371-1.21,0.093-1.11Zm0.649-18.09h-0.371l-0.649.09,0.557,0.09Zm-101.852,40.97c-0.225,0-.264-0.07-0.113-0.22l0.113-.23a3.616,3.616,0,0,1-1.462-1.12l-0.675-.79-1.687-1.01a1.434,1.434,0,0,0-.337-0.28,0.605,0.605,0,0,1-.225-0.28,0.285,0.285,0,0,1-.056-0.28,0.247,0.247,0,0,0,.056-0.17c0.074,0,.112-0.08.112-0.23l0.113-.11c0.3-.38.562-0.73,0.787-1.07s0.45-.69.675-1.07a7.721,7.721,0,0,1,.562-1.29,7.89,7.89,0,0,0,.562-1.29,30.631,30.631,0,0,1,1.575-3.15c0-.15.074-0.15,0.225,0h0.112a39.555,39.555,0,0,0,1.012-6.53q0.225-3.255.225-6.63a28.4,28.4,0,0,0-.168-2.87c-0.113-1.09-.282-2.19-0.506-3.32a30.028,30.028,0,0,0-.844-3.26,11.257,11.257,0,0,0-1.068-2.47l-2.137-2.48a0.443,0.443,0,0,1-.225-0.45v-0.33a0.435,0.435,0,0,1,.337-0.51,4.171,4.171,0,0,0,.675-0.17h0.113a3.636,3.636,0,0,1,.731.06,3.707,3.707,0,0,0,.731.05l0.449,0.23c0.225,0.07.45,0.15,0.675,0.22a2,2,0,0,0,.675.12l0.787-.34a4.32,4.32,0,0,1,.563-0.23,2.263,2.263,0,0,1,.674-0.11,6.825,6.825,0,0,1,3.037,1.24l1.012,0.67,2.137,0.79a0.866,0.866,0,0,1,.787.79,0.511,0.511,0,0,1,.056.39,1.241,1.241,0,0,0-.056.39,1.214,1.214,0,0,0-.281.4,0.511,0.511,0,0,1-.281.28l-0.225.34a3.776,3.776,0,0,0-.394,1.01c-0.188.6-.393,1.27-0.618,2.02q-0.9,3.15-1.631,5.85t-1.237,5.4a51.849,51.849,0,0,0-.731,5.57q-0.227,2.865-.225,6.24v1.01l0.112,0.79,1.687-3.38a16.063,16.063,0,0,0,.9-2.13c0.074-.38.149-0.75,0.225-1.13a6.2,6.2,0,0,1,.337-1.12c0.375-1.28.768-2.51,1.181-3.71s0.768-2.44,1.069-3.71c0.073-.3.149-0.62,0.225-0.96a5.038,5.038,0,0,0,.112-1.07l-0.225-.34a0.739,0.739,0,0,0-.056-0.33,0.789,0.789,0,0,1-.056-0.34c0.073-.53.186-1.33,0.337-2.42a4.767,4.767,0,0,1,.675-2.19,0.573,0.573,0,0,1,.562-0.23h1.012l1.35,0.23a2.908,2.908,0,0,1,.394-0.56,0.79,0.79,0,0,1,.618-0.34,1.707,1.707,0,0,1,.675.22l0.45,0.45,0.787-.56a2.462,2.462,0,0,1,.506-0.39,1.334,1.334,0,0,1,.731-0.17,1.656,1.656,0,0,1,1.406.67,2.247,2.247,0,0,1,.506,1.35v1.01a1.818,1.818,0,0,1-.225.79l-0.112.68a6.638,6.638,0,0,0-.338,1.06,4.978,4.978,0,0,0-.112,1.07c0,1.43.056,2.81,0.168,4.16s0.243,2.7.394,4.05l0.112,0.79a2.422,2.422,0,0,1,0,1.46v0.11a0.749,0.749,0,0,1-.337.45,2.014,2.014,0,0,1-.562-1.29,6.849,6.849,0,0,0-.563-1.63,18.086,18.086,0,0,0,.563,2.81c0.3,1.13.636,2.23,1.012,3.32a20.294,20.294,0,0,0,1.181,2.81,1.732,1.732,0,0,0,1.181,1.18l0.224-.34,0.225-1.12a14.28,14.28,0,0,0,.338-1.97,20.02,20.02,0,0,0,.112-2.08,42.161,42.161,0,0,1,.225-4.33q0.225-2.19.45-4.44l0.337-1.24a1.233,1.233,0,0,1,.338-0.9l0.45-1.01v-1.35a3.993,3.993,0,0,0-.056-0.73,3.043,3.043,0,0,1-.057-0.62,41.414,41.414,0,0,1,.225-4.38,40.9,40.9,0,0,0,.225-4.28v-0.45a2,2,0,0,1,.225-0.56l0.225-.23a34.285,34.285,0,0,0-.506-5.45,36.181,36.181,0,0,0-1.574-6.13,21.523,21.523,0,0,0-2.812-5.45,8.327,8.327,0,0,0-4.218-3.21,0.607,0.607,0,0,1-.337-0.22v-0.23l-0.112-.11a0.651,0.651,0,0,1,.562-0.34,1.326,1.326,0,0,1,.562.11,6.1,6.1,0,0,1,2.868,1.02,15.188,15.188,0,0,1,2.193,2.02l0.9,0.9-0.675-1.01a0.663,0.663,0,0,1-.113-0.45c0-.23.074-0.26,0.225-0.11a3.985,3.985,0,0,1,1.912,1.8l1.462,2.24-0.112-.67a0.2,0.2,0,0,1,.225-0.23,1.473,1.473,0,0,0,.337.29,0.571,0.571,0,0,1,.225.28l0.113,0.22a20.076,20.076,0,0,1,3.092,6.97,72.287,72.287,0,0,1,1.294,7.54l0.112,1.46c0,0.53-.019,1.03-0.056,1.52a5.766,5.766,0,0,0,.056,1.41l0.113,0.78a0.342,0.342,0,0,1,.112.23,0.882,0.882,0,0,0,.113.34v5a19.021,19.021,0,0,1-.225,2.87,70.663,70.663,0,0,0-.731,7.48q-0.17,3.765-.169,7.7l0.112,1.35a9.2,9.2,0,0,0,.225,1.57,3.5,3.5,0,0,1,.338,1.58,1.255,1.255,0,0,1-.45.79l-0.675.56-0.45,1.01-0.225,1.01a3.927,3.927,0,0,1-.281,1.3,1.317,1.317,0,0,1-1.068.28,1.025,1.025,0,0,0-.394-0.28,0.8,0.8,0,0,1-.281-0.17l-0.45-.34a1.873,1.873,0,0,0-.787-0.39,5.683,5.683,0,0,1-.9-0.28,5.24,5.24,0,0,1-1.012-.4,1.954,1.954,0,0,1-.787-0.62l-0.9-1.35-0.45-.22-0.675-.11q-1.463,0-2.811-2.25a30.989,30.989,0,0,1-2.418-5.12q-1.071-2.865-1.856-5.74t-1.012-3.99l-0.112-.79-0.225-.22c-0.225.67-.45,1.39-0.675,2.14a12.8,12.8,0,0,1-.787,2.02q-0.338,1.02-1.181,3.54-0.845,2.535-1.687,5.23t-1.518,5.06a15.283,15.283,0,0,0-.675,3.04l0.337,1.01v0.56a0.687,0.687,0,0,1-.787.45,3.707,3.707,0,0,1-.731-0.05c-0.188-.04-0.394-0.1-0.619-0.17l-1.462-.23a0.752,0.752,0,0,1-.337-0.05,0.744,0.744,0,0,0-.337-0.06l-0.225-.11a2.35,2.35,0,0,1-.563-0.34l-0.787-.34-0.225.12a1.326,1.326,0,0,1-.562.11Zm138.962-4.93a0.848,0.848,0,0,0,1.012.9,1.835,1.835,0,0,0,1.012-.23l0.45-.22a6.428,6.428,0,0,0,.675-0.28,1.925,1.925,0,0,1,.9-0.17l0.563,0.11a0.931,0.931,0,0,0,.562.11c0.376,0,.562-0.07.562-0.22l0.113-.23c0.075,0,.112-0.11.112-0.34l1.35-1.46a2.556,2.556,0,0,0,1.012-2.13,0.5,0.5,0,0,0-.225-0.4,0.707,0.707,0,0,0-.337-0.17l-0.45-.45-0.225-1.01c-0.149-.45-0.281-0.92-0.394-1.4s-0.242-.96-0.393-1.41q-0.337-.675-0.619-1.35t-0.506-1.35l-1.125-2.59a0.661,0.661,0,0,0-.224-0.45,0.639,0.639,0,0,0-.45-0.22c-0.3,0-.45.11-0.45,0.34l0.225,0.78a2.517,2.517,0,0,0,.112.79l0.338,1.46c0.151,0.53.3,1.05,0.449,1.58s0.264,0.97.338,1.35l-0.45-1.24q-0.111-.225-0.562-1.74c-0.3-1.02-.619-2.12-0.956-3.32s-0.768-2.77-1.294-4.72a5.471,5.471,0,0,1,.956.16,13.406,13.406,0,0,1,1.462.45q0.733,0.285,1.35.57a1.505,1.505,0,0,1,.731.5l-1.912-.67a0.683,0.683,0,0,0-.45.11l-0.112.23,0.112,0.22a5.242,5.242,0,0,0,1.012.67c0.526,0.31,1.107.62,1.744,0.96s1.219,0.64,1.743.9a3.293,3.293,0,0,0,1.012.39,1,1,0,0,0,1.237-1.01v-0.79l0.675-1.01a0.644,0.644,0,0,0,.225-0.33l0.112-.23v-0.79a1.894,1.894,0,0,0-.112-0.56,1.784,1.784,0,0,1-.113-0.56l-0.337-.45a7.735,7.735,0,0,1-.337-1.01,3.651,3.651,0,0,1-.113-0.9l0.225-1.8a0.962,0.962,0,0,0,0-.9,0.454,0.454,0,0,0-.562-0.45,1.2,1.2,0,0,0-.788.67,1.143,1.143,0,0,0-.225.62,0.392,0.392,0,0,1-.224.39,0.956,0.956,0,0,1-.9.62c-0.45.04-.861,0.06-1.237,0.06q-1.461,0-3.318-.06a23.07,23.07,0,0,1-3.2-.28l-0.562-.45c-0.15-.37-0.319-0.79-0.507-1.24s-0.393-.89-0.618-1.34a5.117,5.117,0,0,0-.675-1.47,8.911,8.911,0,0,1-.787-1.46q-0.449-1.35-.787-2.64a15.469,15.469,0,0,0-.9-2.53l-1.012-2.93a0.668,0.668,0,0,0-.113-0.39,0.683,0.683,0,0,1-.112-0.39l-0.338-.57-0.224-.78a1.816,1.816,0,0,1,.393-1.24,4.154,4.154,0,0,1,.956-0.79l0.337-.33a1.7,1.7,0,0,0,.788-0.9l0.112-.23a2.11,2.11,0,0,0,.113-1.12,2.937,2.937,0,0,0-.563-0.79l-1.237-.9-0.9-1.24a1.8,1.8,0,0,0-.788-0.22,0.935,0.935,0,0,0-.562.11l-0.225.11a2.838,2.838,0,0,1-.956-0.17c-0.337-.11-0.692-0.24-1.068-0.39l-0.787-.11a0.844,0.844,0,0,0-.563-0.12h-0.112a0.222,0.222,0,0,1-.169-0.05,0.419,0.419,0,0,0-.281-0.06,1.258,1.258,0,0,0-1.012.68l-0.563,1.12L457,1736a4.487,4.487,0,0,0-.787.51c-0.225.19-.412,0.36-0.563,0.51a0.6,0.6,0,0,0,.225.78v0.23a1,1,0,0,1,.338.45l0.9,1.24a8.8,8.8,0,0,1,1.069,1.68,6.108,6.108,0,0,1,.618,2.14,0.477,0.477,0,0,0,.113.34c0.075,0.07.188,0.03,0.337-.12a0.906,0.906,0,0,0,.338-0.56v-0.22a35.085,35.085,0,0,1,.843,3.43,34.521,34.521,0,0,1,.562,4.05c0.113,1.38.208,2.73,0.281,4.04s0.113,2.46.113,3.43l-0.113.34-1.911.23h-3.712q-1.911.105-3.711,0.33c-1.2.16-1.8,0.49-1.8,1.02s0.432,0.82,1.293.9,1.481,0.11,1.856.11h4.161a0.927,0.927,0,0,0,.562-0.11c0.151,0,.225-0.04.225-0.12a0.1,0.1,0,0,0-.113-0.11l-0.112-.22h2.137a1.571,1.571,0,0,1,1.35,1.35,16.257,16.257,0,0,1,.224,2.69v2.7a17.609,17.609,0,0,1-.224,2.7c-0.15.98-.338,1.91-0.563,2.81a8.634,8.634,0,0,0-.337,1.41c-0.074.49-.15,0.99-0.225,1.52-0.074.45-.13,0.92-0.169,1.4s-0.093,1-.169,1.52l-0.562,2.48-0.225.45v-0.9a0.789,0.789,0,0,0-.056-0.34,0.5,0.5,0,0,1-.056-0.23l-0.113-.33a2.005,2.005,0,0,0-.225-0.57H458.24a5.666,5.666,0,0,0-.394,1.41c-0.112.64-.225,1.33-0.337,2.08s-0.186,1.44-.225,2.08-0.056,1.07-.056,1.3a5.833,5.833,0,0,0,.169,1.29,0.945,0.945,0,0,0,1.068.73,5.14,5.14,0,0,0,1.574-.45l1.125-.56,0.787,0.22a0.94,0.94,0,0,0,.45.11,1.98,1.98,0,0,0,1.35-.89l0.225,0.11a3.512,3.512,0,0,0,1.012.22,1.19,1.19,0,0,0,1.237-1.12v-0.56a1.316,1.316,0,0,1-.113-0.57l-0.112-.45q-0.111-.45-0.225-0.9a4.18,4.18,0,0,1-.113-1.01q0-1.125.057-2.25c0.038-.75.056-1.53,0.056-2.36v-0.56a1.306,1.306,0,0,0-.056-0.4,1.224,1.224,0,0,1-.057-0.39l-0.112-.22c-0.149-.15-0.225-0.15-0.225,0a0.436,0.436,0,0,1-.056.28,0.23,0.23,0,0,0-.056.17l-0.563,2.24v-1.68c0.152-1.5.264-2.93,0.338-4.28s0.151-2.73.225-4.16q0-.555.112-1.8a19.321,19.321,0,0,1,.394-2.47,8.852,8.852,0,0,1,.787-2.19,1.488,1.488,0,0,1,1.293-.96,7.167,7.167,0,0,1,1.462.17,13.045,13.045,0,0,1,1.462.39l0.563,1.35a5.7,5.7,0,0,1,.281,1.35,5.9,5.9,0,0,0,.281,1.35q0.675,2.25,1.293,4.56a17.842,17.842,0,0,1,.619,4.66,17.079,17.079,0,0,1-.562,4.16l-0.225.79a0.918,0.918,0,0,0-.113.4,0.9,0.9,0,0,1-.112.39v1.24Zm-3.824-26.77,0.562,2.59-0.9.11a1.6,1.6,0,0,0-.9.22l-1.012.23a1.153,1.153,0,0,1-1.125-.79,6.493,6.493,0,0,1-.45-1.91,9.183,9.183,0,0,1-.168-2.25c0.038-.75.056-1.31,0.056-1.69l0.337,2.14a0.917,0.917,0,0,0,.45.68,0.3,0.3,0,0,0,.337-0.34v-2.93a15.6,15.6,0,0,0-.112-1.85,17.183,17.183,0,0,1-.112-1.97,4.991,4.991,0,0,1,.731,1.29c0.188,0.49.356,0.92,0.506,1.3Zm-6.073,6.3q0,2.925-.112,6.13c-0.074,2.13-.225,4.18-0.45,6.13l-0.113-1.13a18.48,18.48,0,0,1,.113-2.02c0.075-.68.151-1.39,0.225-2.14,0.075-.97.131-1.93,0.168-2.87s0.057-1.89.057-2.86Zm-0.112-6.75a7.136,7.136,0,0,1,.168,1.07,1.727,1.727,0,0,1-.056.84l-0.112.79v-2.7Z" transform="translate(-323 -1724)"/>
</svg>
