<svg version="1.2" baseProfile="tiny-ps" xmlns="http://www.w3.org/2000/svg" viewBox="0 0 306 93" width="306" height="93">
	<title>logo-head-svg</title>
	<style>
		tspan { white-space:pre }
		.shp0 { fill: #cccccc } 
	</style>
	<g id="Layer">
		<g id="Layer">
			<path id="Layer" fill-rule="evenodd" class="shp0" d="M57.74 59.22L53.86 59.22L59.67 45.63C58.48 45.56 57.49 45.38 56.69 45.08C55.89 44.78 55.24 44.4 54.75 43.95C54.26 43.5 53.92 43.01 53.71 42.47C53.5 41.93 53.39 41.38 53.39 40.81C53.39 39.75 53.63 38.89 54.11 38.22C54.59 37.55 55.17 37.02 55.85 36.63C56.52 36.23 57.24 35.96 57.99 35.81C58.74 35.66 59.38 35.59 59.92 35.59C61.28 35.59 62.54 35.78 63.71 36.16L67.08 28.31C67.54 27.21 68.01 26.1 68.49 24.99C68.97 23.87 69.4 22.81 69.77 21.8C70.14 20.79 70.45 19.85 70.69 19C70.93 18.15 71.05 17.43 71.05 16.84C71.05 16.47 70.97 16.16 70.81 15.92C70.66 15.68 70.42 15.56 70.11 15.56C68.63 15.79 66.93 16.5 65.02 17.69C64.21 18.19 63.3 18.82 62.31 19.59C61.32 20.36 60.25 21.31 59.1 22.42C57.94 23.53 56.71 24.84 55.41 26.33C54.11 27.82 52.74 29.54 51.3 31.5L50.64 27.28C52.66 25.2 54.66 23.36 56.63 21.77C58.6 20.18 60.46 18.83 62.22 17.74C63.98 16.64 65.58 15.81 67.03 15.25C68.48 14.69 69.7 14.41 70.67 14.41C71.84 14.41 72.67 14.76 73.17 15.45C73.67 16.15 73.92 17.04 73.92 18.13C73.92 18.84 73.84 19.6 73.67 20.42C73.5 21.25 73.29 22.1 73.03 22.99C72.77 23.87 72.47 24.76 72.13 25.67C71.78 26.58 71.42 27.46 71.05 28.31L66.96 37.81C67.81 38.42 68.58 39.14 69.25 39.99C69.93 40.83 70.54 41.78 71.08 42.84L78.92 42.84L90.36 15.56L94.3 15.56L82.86 42.84L86.08 42.84L84.83 45.63L81.71 45.63L76.02 59.22L72.05 59.22L72.08 59.16C72.12 58.47 72.15 57.81 72.17 57.17C72.2 56.54 72.21 55.92 72.21 55.31C72.21 53.36 72.1 51.58 71.88 49.99C71.66 48.39 71.34 46.94 70.92 45.63L63.58 45.63L57.74 59.22ZM55.24 40.03C55.24 40.36 55.32 40.7 55.47 41.03C55.63 41.36 55.88 41.67 56.21 41.94C56.54 42.21 56.96 42.42 57.47 42.59C57.98 42.76 58.6 42.84 59.33 42.84L60.86 42.84L63.24 37.31C62.15 36.98 60.96 36.81 59.67 36.81C58.3 36.81 57.21 37.11 56.42 37.72C55.63 38.33 55.24 39.1 55.24 40.03ZM73.49 54.63C73.49 54.84 73.49 55.03 73.49 55.22C73.49 55.41 73.48 55.6 73.46 55.81L77.74 45.63L72.21 45.63C73.06 48.3 73.49 51.3 73.49 54.63ZM64.8 42.84L69.74 42.84C68.86 41.17 67.78 39.87 66.49 38.94L64.8 42.84ZM92.21 57.97C92.96 57.97 93.77 57.8 94.66 57.47C95.55 57.14 96.55 56.56 97.66 55.75C98.77 54.94 100.01 53.84 101.36 52.45C102.51 51.28 103.77 49.85 105.16 48.16C106.58 46.41 107.81 44.84 108.86 43.45C109.93 42.04 110.84 40.78 111.61 39.66C112.38 38.53 113.04 37.52 113.58 36.63C114.12 35.73 114.6 34.88 115.02 34.09C115.43 33.3 115.81 32.55 116.16 31.83C116.5 31.11 116.87 30.36 117.27 29.59L120.83 21.13L124.58 21.13L110.77 53.91C110.68 54.12 110.61 54.32 110.55 54.52C110.49 54.71 110.46 54.88 110.46 55.03C110.46 55.28 110.52 55.45 110.63 55.53C110.74 55.62 110.89 55.66 111.08 55.66C111.37 55.66 111.73 55.51 112.14 55.22C112.56 54.93 113 54.5 113.46 53.94L119.17 46.88L119.17 46.88L125.3 39.31C125.84 38.64 126.41 38.06 127 37.55C127.59 37.04 128.21 36.78 128.86 36.78C129.47 36.78 129.9 36.94 130.17 37.27C130.44 37.59 130.58 37.95 130.58 38.34C130.58 38.74 130.51 39.19 130.36 39.69C130.21 40.19 130.03 40.71 129.8 41.25L124.99 53.19C124.7 53.92 124.46 54.58 124.27 55.17C124.08 55.76 123.99 56.29 123.99 56.75C123.99 57.06 124.07 57.32 124.24 57.52C124.41 57.71 124.63 57.81 124.92 57.81C125.28 57.81 125.73 57.63 126.27 57.27C126.81 56.9 127.4 56.41 128.05 55.78C128.7 55.15 129.38 54.42 130.1 53.59C130.81 52.76 131.54 51.87 132.27 50.94C131.92 50.42 131.66 49.8 131.49 49.09C131.32 48.38 131.24 47.59 131.24 46.72C131.24 45.47 131.46 44.24 131.89 43.05C132.33 41.85 132.9 40.77 133.6 39.81C134.29 38.86 135.07 38.09 135.94 37.5C136.81 36.92 137.67 36.63 138.52 36.63C139.33 36.63 139.97 36.89 140.44 37.41C140.91 37.93 141.14 38.72 141.14 39.78C141.14 40.63 140.98 41.55 140.67 42.53C140.36 43.51 139.94 44.51 139.41 45.53C138.88 46.55 138.24 47.58 137.5 48.63C136.76 49.67 135.97 50.67 135.14 51.63C135.39 51.69 135.68 51.72 135.99 51.72C136.55 51.72 137.09 51.67 137.61 51.58C138.13 51.49 138.67 51.28 139.24 50.97C139.8 50.66 140.4 50.2 141.03 49.61C141.67 49.02 142.38 48.23 143.17 47.25L143.23 47.31C143.56 46.65 143.93 46.01 144.33 45.39C145.16 44.11 146.11 42.94 147.16 41.88C148.21 40.81 149.29 39.9 150.38 39.14C151.47 38.38 152.53 37.79 153.55 37.38C154.57 36.96 155.47 36.75 156.24 36.75C157.34 36.75 158.14 37.08 158.63 37.74C159.12 38.39 159.36 39.23 159.36 40.25C159.36 41.19 159.15 42.1 158.74 42.97C158.32 43.84 157.77 44.67 157.08 45.45C156.39 46.24 155.6 46.96 154.69 47.61C153.78 48.26 152.84 48.83 151.85 49.3C150.86 49.77 149.86 50.14 148.85 50.41C147.84 50.68 146.89 50.81 146.02 50.81C145.75 51.6 145.53 52.35 145.38 53.06C145.22 53.77 145.14 54.43 145.14 55.03C145.14 56.16 145.36 56.93 145.8 57.34C146.24 57.76 146.77 57.97 147.39 57.97C148.14 57.97 148.96 57.8 149.85 57.47C150.73 57.14 151.73 56.56 152.85 55.75C153.96 54.94 155.2 53.84 156.55 52.45C157.89 51.09 159.39 49.37 161.05 47.3C161.78 46.21 162.62 45.14 163.55 44.09C164.72 42.78 165.98 41.6 167.35 40.55C168.71 39.5 170.14 38.62 171.64 37.91C173.14 37.2 174.66 36.77 176.21 36.63L176.21 37.19C174.94 37.56 173.72 38.14 172.55 38.92C171.38 39.7 170.29 40.6 169.27 41.63C168.25 42.65 167.32 43.74 166.49 44.89C165.66 46.05 164.94 47.19 164.33 48.31C163.72 49.44 163.26 50.51 162.94 51.52C162.62 52.53 162.46 53.37 162.46 54.06C162.46 54.44 162.52 54.75 162.63 55C162.74 55.25 162.9 55.38 163.11 55.38C163.34 55.38 163.68 55.19 164.13 54.81C164.58 54.44 165.09 53.93 165.67 53.3C166.26 52.66 166.89 51.93 167.58 51.11C168.27 50.29 168.96 49.43 169.67 48.53C170.38 47.64 171.09 46.73 171.78 45.81C172.48 44.9 173.13 44.03 173.74 43.22C174.65 41.97 175.42 40.94 176.03 40.13C176.65 39.32 177.18 38.66 177.63 38.17C178.08 37.68 178.48 37.35 178.83 37.16C179.18 36.97 179.57 36.88 179.99 36.88C180.42 36.88 180.72 36.99 180.89 37.22C181.06 37.45 181.14 37.73 181.14 38.06C181.14 38.33 181.1 38.62 181.03 38.91C180.96 39.2 180.87 39.46 180.77 39.69L173.52 57.06C174.89 55.87 176.37 54.48 177.94 52.89C179.51 51.3 181.21 49.41 183.03 47.21C183.35 46.58 183.7 45.98 184.08 45.39C184.91 44.11 185.86 42.94 186.91 41.88C187.96 40.81 189.04 39.9 190.13 39.14C191.22 38.38 192.28 37.79 193.3 37.38C194.32 36.96 195.22 36.75 195.99 36.75C197.09 36.75 197.89 37.08 198.38 37.74C198.87 38.39 199.11 39.23 199.11 40.25C199.11 41.19 198.9 42.1 198.49 42.97C198.07 43.84 197.52 44.67 196.83 45.45C196.14 46.24 195.35 46.96 194.44 47.61C193.53 48.26 192.59 48.83 191.6 49.3C190.61 49.77 189.61 50.14 188.6 50.41C187.59 50.68 186.64 50.81 185.77 50.81C185.5 51.6 185.28 52.35 185.13 53.06C184.97 53.77 184.89 54.43 184.89 55.03C184.89 56.16 185.11 56.93 185.55 57.34C185.99 57.76 186.52 57.97 187.14 57.97C187.89 57.97 188.71 57.8 189.6 57.47C190.48 57.14 191.48 56.56 192.6 55.75C193.71 54.94 194.95 53.84 196.3 52.45C197.65 51.07 199.17 49.33 200.86 47.22L200.87 47.22L207.27 39.31C207.81 38.64 208.38 38.06 208.97 37.55C209.56 37.04 210.18 36.78 210.83 36.78C211.44 36.78 211.87 36.94 212.14 37.27C212.41 37.59 212.55 37.95 212.55 38.34C212.55 38.74 212.48 39.19 212.33 39.69C212.18 40.19 212 40.71 211.77 41.25L207.42 51.47C207.3 51.76 207.24 51.99 207.24 52.16C207.24 52.37 207.32 52.47 207.49 52.47C207.72 52.47 207.97 52.26 208.24 51.84L214.77 42.13C215.44 41.13 216.03 40.28 216.56 39.58C217.09 38.88 217.59 38.31 218.06 37.88C218.53 37.44 218.98 37.12 219.41 36.92C219.84 36.73 220.28 36.63 220.74 36.63C221.53 36.63 222.13 36.78 222.55 37.09C222.96 37.4 223.17 37.86 223.17 38.47C223.17 38.82 223.12 39.19 223.02 39.58C222.91 39.97 222.81 40.3 222.71 40.59L217.27 53.91C217.18 54.12 217.11 54.32 217.05 54.52C216.99 54.71 216.96 54.88 216.96 55.03C216.96 55.28 217.02 55.45 217.13 55.53C217.24 55.62 217.39 55.66 217.58 55.66C217.87 55.66 218.23 55.51 218.64 55.22C219.06 54.93 219.5 54.5 219.96 53.94L225.67 46.88L226.46 47.5L219.55 56.03C219.05 56.66 218.58 57.18 218.14 57.59C217.71 58.01 217.3 58.34 216.91 58.58C216.52 58.82 216.14 58.99 215.75 59.09C215.36 59.2 214.97 59.25 214.58 59.25C213.95 59.25 213.43 59.07 213.02 58.7C212.6 58.34 212.39 57.88 212.39 57.31C212.39 56.79 212.52 56.18 212.77 55.47C213.02 54.76 213.36 53.9 213.8 52.88L218.86 40.91C218.93 40.76 218.96 40.61 218.96 40.44C218.96 40.02 218.76 39.81 218.36 39.81C218.19 39.81 218.01 39.86 217.81 39.97C217.62 40.08 217.42 40.28 217.21 40.59L206.89 55.91C206.08 57.12 205.36 57.98 204.75 58.49C204.14 59 203.54 59.25 202.96 59.25C202 59.25 201.52 58.79 201.52 57.88C201.52 57.4 201.64 56.8 201.88 56.09C202.12 55.38 202.45 54.53 202.86 53.53L208.05 41.31C208.11 41.16 208.14 41.05 208.14 40.97C208.14 40.84 208.1 40.75 208.03 40.7C207.96 40.65 207.87 40.63 207.77 40.63C207.56 40.63 207.38 40.74 207.21 40.97L201.02 48.63L201.02 48.63C199.82 50.12 198.71 51.42 197.67 52.52C196.46 53.8 195.36 54.86 194.36 55.7C193.36 56.55 192.46 57.2 191.66 57.67C190.86 58.14 190.15 58.49 189.52 58.72C188.89 58.95 188.34 59.09 187.86 59.14C187.38 59.19 186.97 59.22 186.64 59.22C186.14 59.22 185.58 59.15 184.96 59C184.33 58.85 183.75 58.59 183.21 58.2C182.66 57.82 182.21 57.3 181.85 56.63C181.48 55.96 181.3 55.1 181.3 54.03C181.3 52.73 181.47 51.47 181.82 50.25C181.53 50.59 181.24 50.93 180.96 51.25C180.04 52.29 179.13 53.26 178.22 54.17C177.31 55.08 176.4 55.94 175.49 56.75C174.57 57.56 173.61 58.39 172.61 59.22L169.61 66.44C168.94 68.05 168.26 69.49 167.56 70.78C166.87 72.07 166.12 73.17 165.33 74.06C164.54 74.96 163.68 75.65 162.77 76.13C161.85 76.61 160.84 76.85 159.74 76.85C159.01 76.85 158.39 76.73 157.89 76.49C157.39 76.25 156.98 75.94 156.67 75.56C156.36 75.19 156.14 74.77 156 74.31C155.87 73.86 155.8 73.42 155.8 73C155.8 71.63 156.19 70.36 156.96 69.2C157.73 68.05 158.73 66.94 159.97 65.88C161.21 64.81 162.6 63.75 164.13 62.7C165.66 61.65 167.19 60.54 168.74 59.35L174.86 44.59C174.99 44.28 175.05 44.1 175.05 44.03C175.05 43.82 174.98 43.72 174.83 43.72C174.64 43.72 174.45 43.88 174.24 44.19C174.11 44.36 173.86 44.71 173.49 45.25C173.11 45.79 172.65 46.44 172.11 47.19C171.57 47.94 170.99 48.75 170.36 49.63C169.73 50.5 169.11 51.36 168.49 52.19C167.86 53.02 167.27 53.78 166.71 54.47C166.14 55.16 165.66 55.7 165.27 56.09C164.27 57.09 163.38 57.88 162.61 58.45C161.84 59.02 161.08 59.31 160.33 59.31C160.08 59.31 159.81 59.26 159.5 59.16C159.2 59.05 158.92 58.87 158.66 58.61C158.4 58.35 158.19 57.99 158.02 57.52C157.85 57.05 157.77 56.45 157.77 55.72C157.77 54.63 158.01 53.44 158.5 52.13C158.55 51.99 158.61 51.85 158.66 51.71C158.41 51.99 158.16 52.26 157.92 52.52C156.71 53.8 155.61 54.86 154.61 55.7C153.61 56.55 152.71 57.2 151.91 57.67C151.11 58.14 150.4 58.49 149.77 58.72C149.14 58.95 148.59 59.09 148.11 59.14C147.63 59.19 147.22 59.22 146.89 59.22C146.39 59.22 145.83 59.15 145.21 59C144.58 58.85 144 58.59 143.46 58.2C142.91 57.82 142.46 57.3 142.1 56.63C141.73 55.96 141.55 55.1 141.55 54.03C141.55 52.63 141.75 51.28 142.16 49.96C142.04 50.08 141.92 50.2 141.8 50.31C141.13 50.94 140.48 51.43 139.85 51.78C139.21 52.13 138.58 52.38 137.96 52.53C137.33 52.68 136.69 52.75 136.02 52.75C135.37 52.75 134.82 52.68 134.36 52.53C133.47 53.51 132.53 54.42 131.56 55.25C130.59 56.08 129.64 56.81 128.71 57.42C127.77 58.03 126.87 58.52 126 58.88C125.14 59.23 124.35 59.41 123.64 59.41C122.79 59.41 122.11 59.13 121.61 58.58C121.11 58.03 120.86 57.19 120.86 56.06C120.86 55.33 120.99 54.47 121.25 53.47C121.51 52.47 121.88 51.4 122.36 50.25L126.08 41.31C126.14 41.16 126.17 41.05 126.17 40.97C126.17 40.84 126.13 40.75 126.06 40.7C125.99 40.65 125.91 40.63 125.8 40.63C125.59 40.63 125.41 40.74 125.24 40.97L119.05 48.63L119.05 48.63L113.05 56.03C112.55 56.66 112.1 57.18 111.69 57.59C111.28 58.01 110.9 58.34 110.53 58.58C110.17 58.82 109.81 58.99 109.44 59.09C109.07 59.2 108.69 59.25 108.3 59.25C107.67 59.25 107.15 59.07 106.74 58.7C106.32 58.34 106.11 57.88 106.11 57.31C106.11 56.79 106.24 56.18 106.5 55.47C106.76 54.76 107.1 53.9 107.52 52.88L113.42 38.78C113.09 39.3 112.7 39.88 112.27 40.53C111.83 41.18 111.3 41.91 110.69 42.72C110.08 43.53 109.38 44.44 108.6 45.45C108.03 46.18 107.4 46.98 106.71 47.84L106.71 47.84C105.27 49.67 103.95 51.23 102.74 52.52C101.53 53.8 100.42 54.86 99.42 55.7C98.42 56.55 97.52 57.2 96.72 57.67C95.92 58.14 95.21 58.49 94.58 58.72C93.95 58.95 93.4 59.09 92.92 59.14C92.45 59.19 92.04 59.22 91.71 59.22C91.21 59.22 90.65 59.15 90.02 59C89.39 58.85 88.81 58.59 88.27 58.2C87.73 57.82 87.28 57.3 86.91 56.63C86.54 55.96 86.36 55.1 86.36 54.03C86.36 52.47 86.62 50.96 87.13 49.5C87.64 48.04 88.31 46.67 89.14 45.39C89.97 44.11 90.92 42.94 91.97 41.88C93.02 40.81 94.1 39.9 95.19 39.14C96.28 38.38 97.34 37.79 98.36 37.38C99.38 36.96 100.28 36.75 101.05 36.75C102.16 36.75 102.95 37.08 103.44 37.74C103.93 38.39 104.17 39.23 104.17 40.25C104.17 41.19 103.96 42.1 103.55 42.97C103.13 43.84 102.58 44.67 101.89 45.45C101.2 46.24 100.41 46.96 99.5 47.61C98.59 48.26 97.65 48.83 96.66 49.3C95.67 49.77 94.67 50.14 93.66 50.41C92.65 50.68 91.7 50.81 90.83 50.81C90.56 51.6 90.34 52.35 90.19 53.06C90.04 53.77 89.96 54.43 89.96 55.03C89.96 56.16 90.18 56.93 90.61 57.34C91.05 57.76 91.58 57.97 92.21 57.97ZM100.02 38.03C99.45 38.03 98.78 38.39 97.99 39.11C97.2 39.83 96.38 40.76 95.53 41.91C94.69 43.06 93.88 44.33 93.1 45.74C92.31 47.14 91.66 48.54 91.14 49.94C92.62 49.69 93.97 49.18 95.19 48.42C96.41 47.66 97.45 46.78 98.31 45.77C99.18 44.76 99.84 43.69 100.31 42.56C100.78 41.44 101.02 40.41 101.02 39.47C101.02 38.91 100.93 38.53 100.74 38.33C100.55 38.13 100.31 38.03 100.02 38.03ZM132.46 46.66C132.46 48.01 132.66 49.1 133.05 49.91C133.76 48.91 134.44 47.89 135.1 46.86C135.75 45.83 136.32 44.84 136.8 43.89C137.28 42.94 137.67 42.06 137.96 41.24C138.25 40.41 138.39 39.71 138.39 39.13C138.39 38.86 138.35 38.6 138.27 38.36C138.18 38.12 137.97 38 137.64 38C137.27 38 136.78 38.22 136.19 38.67C135.6 39.12 135.02 39.73 134.47 40.52C133.92 41.3 133.44 42.22 133.05 43.27C132.66 44.32 132.46 45.45 132.46 46.66ZM155.21 38.03C154.64 38.03 153.96 38.39 153.17 39.11C152.38 39.83 151.57 40.76 150.72 41.91C149.88 43.06 149.07 44.33 148.28 45.74C147.5 47.14 146.85 48.54 146.33 49.94C147.81 49.69 149.16 49.18 150.38 48.42C151.6 47.66 152.64 46.78 153.5 45.77C154.37 44.76 155.03 43.69 155.5 42.56C155.97 41.44 156.21 40.41 156.21 39.47C156.21 38.91 156.11 38.53 155.92 38.33C155.73 38.13 155.5 38.03 155.21 38.03ZM167.96 61.25C166.29 62.46 164.78 63.55 163.42 64.52C162.07 65.49 160.92 66.41 159.97 67.3C159.02 68.19 158.29 69.09 157.78 70C157.27 70.92 157.02 71.93 157.02 73.03C157.02 73.32 157.06 73.63 157.14 73.94C157.23 74.25 157.36 74.53 157.53 74.78C157.71 75.03 157.95 75.24 158.24 75.39C158.53 75.55 158.88 75.63 159.3 75.63C160.34 75.63 161.29 75.05 162.16 73.88C163.03 72.71 163.86 71.15 164.67 69.19L167.96 61.25ZM194.96 38.03C194.39 38.03 193.71 38.39 192.92 39.11C192.13 39.83 191.32 40.76 190.47 41.91C189.63 43.06 188.82 44.33 188.03 45.74C187.25 47.14 186.6 48.54 186.08 49.94C187.56 49.69 188.91 49.18 190.13 48.42C191.35 47.66 192.39 46.78 193.25 45.77C194.12 44.76 194.78 43.69 195.25 42.56C195.72 41.44 195.96 40.41 195.96 39.47C195.96 38.91 195.86 38.53 195.67 38.33C195.48 38.13 195.25 38.03 194.96 38.03ZM230.96 40.78C230.65 39.63 230.49 38.47 230.49 37.28C230.49 35.24 230.91 33.25 231.75 31.3C232.6 29.35 233.75 27.62 235.22 26.11C236.69 24.6 238.41 23.38 240.39 22.45C242.37 21.52 244.51 21.06 246.8 21.06C248.07 21.06 249.23 21.27 250.28 21.69C251.33 22.1 252.24 22.68 252.99 23.41C253.74 24.14 254.32 25 254.74 25.99C255.15 26.98 255.36 28.05 255.36 29.22C255.36 31.37 254.96 33.31 254.16 35.05C253.36 36.79 252.27 38.4 250.89 39.89C249.52 41.38 247.91 42.78 246.08 44.08C244.25 45.38 242.3 46.67 240.24 47.94C238.17 49.21 236.05 50.5 233.86 51.83C231.67 53.15 229.55 54.57 227.49 56.09C227.8 55.95 228.08 55.84 228.33 55.75C228.58 55.67 228.85 55.61 229.13 55.56C229.41 55.52 229.72 55.5 230.06 55.49C230.41 55.48 230.83 55.47 231.33 55.47C232.5 55.47 233.75 55.52 235.1 55.63C236.44 55.73 237.83 55.78 239.27 55.78C239.87 55.78 240.42 55.75 240.91 55.69C241.4 55.62 241.85 55.52 242.27 55.39C242.68 55.26 243.07 55.07 243.44 54.84C243.81 54.61 244.17 54.33 244.52 54L245.64 54.59L241.42 59.75C240.21 59.6 239.03 59.43 237.88 59.24C236.72 59.04 235.56 58.86 234.39 58.69C233.22 58.52 232.03 58.38 230.81 58.27C229.6 58.15 228.32 58.09 226.99 58.09C226.11 58.09 225.21 58.23 224.3 58.5C223.38 58.77 222.54 59.21 221.77 59.81L221.02 58.84C223.5 56.91 225.97 55.1 228.44 53.42C230.91 51.75 233.26 50.14 235.5 48.61C237.74 47.08 239.82 45.58 241.75 44.11C243.68 42.64 245.35 41.14 246.78 39.61C248.21 38.08 249.32 36.47 250.13 34.8C250.93 33.12 251.33 31.3 251.33 29.34C251.33 28.41 251.19 27.53 250.91 26.72C250.63 25.91 250.23 25.2 249.71 24.61C249.18 24.02 248.56 23.55 247.83 23.2C247.1 22.86 246.29 22.69 245.39 22.69C243.64 22.69 242.05 23.05 240.61 23.78C239.18 24.51 237.95 25.45 236.92 26.58C235.9 27.71 235.11 28.98 234.55 30.39C233.99 31.8 233.71 33.18 233.71 34.53C233.71 35.26 233.8 35.97 233.99 36.66C234.18 37.35 234.46 37.97 234.83 38.53L230.96 40.78Z" />
		</g>
	</g>
</svg>