<svg data-v-423bf9ae="" xmlns="http://www.w3.org/2000/svg" viewBox="0 0 341 90" class="iconLeft"><!----><!----><!----><g data-v-423bf9ae="" id="d1099927-495e-45a6-a9e2-c030b63326e9" fill="#544D28" transform="matrix(3.5149385929107666,0,0,3.5149385929107666,109.05096435546875,-3.1019327640533447)"><path d="M7.95 7.87L6.65 8.37L6.65 13.38L2.72 13.38L2.72 7.87L1.40 8.37L1.40 13.38L0.67 13.38L0.27 14.21L1.40 14.21L1.40 18.28L2.72 17.81L2.72 14.21L6.65 14.21L6.65 18.28L7.95 17.81L7.95 7.87ZM13.52 10.96L13.52 10.96Q14.28 10.96 14.78 11.37L14.78 11.37L14.78 11.37Q15.29 11.77 15.29 12.57L15.29 12.57L15.29 12.57Q15.29 13.22 14.59 14.01L14.59 14.01L14.59 14.01Q13.90 14.80 12.97 15.46L12.97 15.46L12.97 15.46Q12.04 16.11 11.38 16.38L11.38 16.38L11.38 16.38Q11.73 16.94 12.18 17.16L12.18 17.16L12.18 17.16Q12.63 17.37 13.23 17.37L13.23 17.37L13.23 17.37Q13.90 17.37 14.57 17.03L14.57 17.03L14.57 17.03Q15.23 16.69 15.67 16.14L15.67 16.14L15.83 16.44L15.83 16.44Q15.15 17.32 14.38 17.79L14.38 17.79L14.38 17.79Q13.61 18.26 12.49 18.26L12.49 18.26L12.49 18.26Q11.63 18.26 10.96 17.84L10.96 17.84L10.96 17.84Q10.29 17.42 9.91 16.71L9.91 16.71L9.91 16.71Q9.53 16.00 9.53 15.18L9.53 15.18L9.53 15.18Q9.53 14.14 10.09 13.16L10.09 13.16L10.09 13.16Q10.65 12.18 11.58 11.57L11.58 11.57L11.58 11.57Q12.50 10.96 13.52 10.96L13.52 10.96ZM12.80 11.84L12.80 11.84Q12.18 11.84 11.70 12.24L11.70 12.24L11.70 12.24Q11.21 12.63 10.94 13.24L10.94 13.24L10.94 13.24Q10.67 13.86 10.67 14.52L10.67 14.52L10.67 14.52Q10.67 15.39 11.07 16.00L11.07 16.00L11.07 16.00Q11.66 15.74 12.35 15.20L12.35 15.20L12.35 15.20Q13.03 14.66 13.51 14.03L13.51 14.03L13.51 14.03Q13.99 13.40 13.99 12.88L13.99 12.88L13.99 12.88Q13.99 11.84 12.80 11.84L12.80 11.84ZM18.76 5.15L18.76 16.91L18.76 16.91Q18.76 17.08 18.86 17.23L18.86 17.23L18.86 17.23Q18.96 17.39 19.19 17.39L19.19 17.39L19.19 17.39Q19.39 17.39 19.61 17.21L19.61 17.21L19.61 17.21Q19.82 17.04 19.94 16.84L19.94 16.84L20.17 17.05L20.17 17.05Q19.94 17.51 19.52 17.84L19.52 17.84L19.52 17.84Q19.10 18.16 18.68 18.16L18.68 18.16L18.68 18.16Q17.50 18.16 17.50 16.74L17.50 16.74L17.50 5.68L18.76 5.15ZM26.24 10.61L26.24 10.61Q26.80 10.79 27.10 11.21L27.10 11.21L27.10 11.21Q27.41 11.63 27.41 12.18L27.41 12.18L27.41 12.18Q27.41 12.47 27.34 12.82L27.34 12.82L27.34 12.82Q27.26 13.17 27.13 13.43L27.13 13.43L24.70 18.24L24.70 18.24Q24.67 18.27 24.58 18.30L24.58 18.30L24.58 18.30Q24.49 18.33 24.42 18.33L24.42 18.33L24.42 18.33Q24.30 18.33 24.20 18.28L24.20 18.28L24.20 18.28Q24.09 18.24 24.08 18.20L24.08 18.20L21.66 12.91L21.66 12.91Q21.31 12.26 20.93 12.26L20.93 12.26L20.93 12.26Q20.79 12.26 20.67 12.36L20.67 12.36L20.67 12.36Q20.55 12.45 20.51 12.47L20.51 12.47L20.38 12.32L20.38 12.32Q20.55 11.79 21.01 11.44L21.01 11.44L21.01 11.44Q21.46 11.09 21.92 11.09L21.92 11.09L21.92 11.09Q22.19 11.09 22.39 11.44L22.39 11.44L22.39 11.44Q22.60 11.79 22.72 12.12L22.72 12.12L22.72 12.12Q22.85 12.45 22.89 12.54L22.89 12.54L24.85 16.90L26.10 14.36L26.10 14.36Q26.11 14.32 26.21 14.06L26.21 14.06L26.21 14.06Q26.32 13.79 26.32 13.54L26.32 13.54L26.32 13.54Q26.32 12.50 25.20 11.98L25.20 11.98L26.24 10.61ZM32.17 10.96L32.17 10.96Q32.93 10.96 33.43 11.37L33.43 11.37L33.43 11.37Q33.94 11.77 33.94 12.57L33.94 12.57L33.94 12.57Q33.94 13.22 33.24 14.01L33.24 14.01L33.24 14.01Q32.55 14.80 31.62 15.46L31.62 15.46L31.62 15.46Q30.69 16.11 30.03 16.38L30.03 16.38L30.03 16.38Q30.38 16.94 30.83 17.16L30.83 17.16L30.83 17.16Q31.28 17.37 31.88 17.37L31.88 17.37L31.88 17.37Q32.55 17.37 33.22 17.03L33.22 17.03L33.22 17.03Q33.88 16.69 34.31 16.14L34.31 16.14L34.48 16.44L34.48 16.44Q33.80 17.32 33.03 17.79L33.03 17.79L33.03 17.79Q32.26 18.26 31.14 18.26L31.14 18.26L31.14 18.26Q30.28 18.26 29.61 17.84L29.61 17.84L29.61 17.84Q28.94 17.42 28.56 16.71L28.56 16.71L28.56 16.71Q28.18 16.00 28.18 15.18L28.18 15.18L28.18 15.18Q28.18 14.14 28.74 13.16L28.74 13.16L28.74 13.16Q29.30 12.18 30.23 11.57L30.23 11.57L30.23 11.57Q31.15 10.96 32.17 10.96L32.17 10.96ZM31.44 11.84L31.44 11.84Q30.83 11.84 30.34 12.24L30.34 12.24L30.34 12.24Q29.86 12.63 29.59 13.24L29.59 13.24L29.59 13.24Q29.32 13.86 29.32 14.52L29.32 14.52L29.32 14.52Q29.32 15.39 29.72 16.00L29.72 16.00L29.72 16.00Q30.31 15.74 31.00 15.20L31.00 15.20L31.00 15.20Q31.68 14.66 32.16 14.03L32.16 14.03L32.16 14.03Q32.63 13.40 32.63 12.88L32.63 12.88L32.63 12.88Q32.63 11.84 31.44 11.84L31.44 11.84ZM39.20 10.91L39.20 10.91Q39.87 10.91 40.49 11.28L40.49 11.28L40.49 11.28Q41.10 11.65 41.43 12.28L41.43 12.28L40.42 12.82L40.42 12.82Q40.21 12.33 39.82 12.05L39.82 12.05L39.82 12.05Q39.42 11.77 38.95 11.77L38.95 11.77L38.95 11.77Q38.25 11.77 37.72 12.25L37.72 12.25L37.72 12.25Q37.20 12.73 36.91 13.43L36.91 13.43L36.91 13.43Q36.62 14.13 36.62 14.76L36.62 14.76L36.62 14.76Q36.62 15.74 37.04 16.49L37.04 16.49L37.04 16.49Q37.45 17.25 38.36 17.25L38.36 17.25L38.36 17.25Q39.40 17.25 39.79 16.32L39.79 16.32L39.79 16.32Q40.18 15.39 40.18 14.31L40.18 14.31L40.18 13.68L41.44 13.16L41.44 17.44L41.44 17.44Q41.44 18.49 40.95 19.61L40.95 19.61L40.95 19.61Q40.46 20.73 39.60 21.48L39.60 21.48L39.60 21.48Q38.74 22.22 37.66 22.22L37.66 22.22L37.66 22.22Q36.89 22.22 36.44 21.69L36.44 21.69L37.63 20.68L37.63 20.68Q37.73 20.93 37.96 21.08L37.96 21.08L37.96 21.08Q38.19 21.24 38.54 21.24L38.54 21.24L38.54 21.24Q39.59 21.24 39.91 20.46L39.91 20.46L39.91 20.46Q40.22 19.68 40.22 18.51L40.22 18.51L40.18 17.36L40.18 17.36Q40.18 16.84 40.28 16.52L40.28 16.52L40.18 16.52L40.18 16.52Q39.66 17.33 39.18 17.79L39.18 17.79L39.18 17.79Q38.70 18.26 38.02 18.26L38.02 18.26L38.02 18.26Q36.82 18.26 36.18 17.46L36.18 17.46L36.18 17.46Q35.53 16.67 35.53 15.46L35.53 15.46L35.53 15.46Q35.53 14.27 36.02 13.22L36.02 13.22L36.02 13.22Q36.50 12.18 37.34 11.54L37.34 11.54L37.34 11.54Q38.19 10.91 39.20 10.91L39.20 10.91ZM47.11 10.96L47.11 10.96Q47.87 10.96 48.37 11.37L48.37 11.37L48.37 11.37Q48.87 11.77 48.87 12.57L48.87 12.57L48.87 12.57Q48.87 13.22 48.18 14.01L48.18 14.01L48.18 14.01Q47.49 14.80 46.56 15.46L46.56 15.46L46.56 15.46Q45.63 16.11 44.97 16.38L44.97 16.38L44.97 16.38Q45.32 16.94 45.77 17.16L45.77 17.16L45.77 17.16Q46.21 17.37 46.82 17.37L46.82 17.37L46.82 17.37Q47.49 17.37 48.15 17.03L48.15 17.03L48.15 17.03Q48.82 16.69 49.25 16.14L49.25 16.14L49.42 16.44L49.42 16.44Q48.73 17.32 47.96 17.79L47.96 17.79L47.96 17.79Q47.19 18.26 46.07 18.26L46.07 18.26L46.07 18.26Q45.22 18.26 44.55 17.84L44.55 17.84L44.55 17.84Q43.88 17.42 43.50 16.71L43.50 16.71L43.50 16.71Q43.12 16.00 43.12 15.18L43.12 15.18L43.12 15.18Q43.12 14.14 43.68 13.16L43.68 13.16L43.68 13.16Q44.24 12.18 45.16 11.57L45.16 11.57L45.16 11.57Q46.09 10.96 47.11 10.96L47.11 10.96ZM46.38 11.84L46.38 11.84Q45.77 11.84 45.28 12.24L45.28 12.24L45.28 12.24Q44.80 12.63 44.53 13.24L44.53 13.24L44.53 13.24Q44.25 13.86 44.25 14.52L44.25 14.52L44.25 14.52Q44.25 15.39 44.66 16.00L44.66 16.00L44.66 16.00Q45.25 15.74 45.93 15.20L45.93 15.20L45.93 15.20Q46.62 14.66 47.10 14.03L47.10 14.03L47.10 14.03Q47.57 13.40 47.57 12.88L47.57 12.88L47.57 12.88Q47.57 11.84 46.38 11.84L46.38 11.84ZM55.86 10.96L55.86 10.96Q56.42 10.96 56.59 11.38L56.59 11.38L56.59 11.38Q56.76 11.79 56.76 12.52L56.76 12.52L56.76 12.95L56.76 16.91L56.76 16.91Q56.76 17.07 56.85 17.23L56.85 17.23L56.85 17.23Q56.95 17.39 57.13 17.39L57.13 17.39L57.13 17.39Q57.37 17.39 57.54 17.23L57.54 17.23L57.54 17.23Q57.71 17.08 57.88 16.84L57.88 16.84L58.09 17.05L58.09 17.05Q57.88 17.50 57.46 17.83L57.46 17.83L57.46 17.83Q57.04 18.16 56.66 18.16L56.66 18.16L56.66 18.16Q56.10 18.16 55.79 17.81L55.79 17.81L55.79 17.81Q55.48 17.46 55.48 16.74L55.48 16.74L55.48 13.03L55.48 13.03Q55.48 12.82 55.44 12.68L55.44 12.68L55.44 12.68Q55.40 12.54 55.23 12.54L55.23 12.54L55.23 12.54Q54.66 12.54 54.05 13.65L54.05 13.65L54.05 13.65Q53.45 14.76 53.02 16.12L53.02 16.12L53.02 16.12Q52.60 17.49 52.60 17.92L52.60 17.92L51.38 18.28L51.38 12.29L51.38 12.29Q51.38 12.10 51.27 11.94L51.27 11.94L51.27 11.94Q51.17 11.77 50.97 11.77L50.97 11.77L50.97 11.77Q50.64 11.77 50.25 12.38L50.25 12.38L50.04 12.15L50.04 12.15Q50.22 11.65 50.64 11.30L50.64 11.30L50.64 11.30Q51.06 10.96 51.48 10.96L51.48 10.96L51.48 10.96Q52.07 10.96 52.35 11.24L52.35 11.24L52.35 11.24Q52.64 11.52 52.64 12.01L52.64 12.01L52.64 15.69L52.70 15.69L52.70 15.69Q53.07 14.45 53.42 13.52L53.42 13.52L53.42 13.52Q53.77 12.60 54.40 11.78L54.40 11.78L54.40 11.78Q55.03 10.96 55.86 10.96L55.86 10.96ZM62.05 8.05L62.05 8.05Q63.42 8.05 64.23 8.85L64.23 8.85L64.23 8.85Q65.04 9.65 65.04 11.03L65.04 11.03L65.04 11.03Q65.04 12.26 64.39 13.31L64.39 13.31L64.39 13.31Q63.74 14.36 62.87 15.11L62.87 15.11L62.87 15.11Q62.01 15.86 60.79 16.72L60.79 16.72L60.84 16.77L60.84 16.77Q61.36 16.63 61.80 16.63L61.80 16.63L61.80 16.63Q62.24 16.63 62.92 16.79L62.92 16.79L62.92 16.79Q63.73 16.95 64.32 16.95L64.32 16.95L64.32 16.95Q65.06 16.95 65.63 16.07L65.63 16.07L65.86 16.23L64.71 18.21L63.94 18.12L63.94 18.12Q62.76 17.96 62.03 17.89L62.03 17.89L62.03 17.89Q61.29 17.81 60.59 17.81L60.59 17.81L60.59 17.81Q60.12 17.81 59.68 17.93L59.68 17.93L59.68 17.93Q59.25 18.05 59.04 18.21L59.04 18.21L58.79 17.99L58.79 17.99Q59.12 17.63 59.84 17.00L59.84 17.00L59.84 17.00Q60.96 15.97 61.72 15.18L61.72 15.18L61.72 15.18Q62.48 14.38 63.04 13.41L63.04 13.41L63.04 13.41Q63.60 12.45 63.60 11.49L63.60 11.49L63.60 11.49Q63.60 10.85 63.30 10.32L63.30 10.32L63.30 10.32Q63 9.79 62.48 9.49L62.48 9.49L62.48 9.49Q61.96 9.18 61.32 9.18L61.32 9.18L61.32 9.18Q60.61 9.18 59.98 9.53L59.98 9.53L59.98 9.53Q59.35 9.87 58.90 10.43L58.90 10.43L58.63 10.19L58.63 10.19Q59.21 9.32 60.16 8.69L60.16 8.69L60.16 8.69Q61.12 8.05 62.05 8.05L62.05 8.05Z"></path></g><defs data-v-423bf9ae=""><linearGradient data-v-423bf9ae="" gradientTransform="rotate(25)" id="16be7d11-b1c1-4fd2-908d-79446a2cca19" x1="0%" y1="0%" x2="100%" y2="0%"><stop data-v-423bf9ae="" offset="0%" style="stop-color: rgb(233, 140, 0); stop-opacity: 1;"></stop><stop data-v-423bf9ae="" offset="100%" style="stop-color: rgb(225, 253, 0); stop-opacity: 1;"></stop></linearGradient></defs><g data-v-423bf9ae="" id="199b39a4-b17f-406e-9faa-d926354fd952" transform="matrix(2.8125,0,0,2.8125,0,0)" stroke="none" fill="url(#16be7d11-b1c1-4fd2-908d-79446a2cca19)"><path d="M0 16l16 16 16-16L16 0 0 16zm16 13.172L2.828 16 16 2.828 29.172 16 16 29.172z"></path><path d="M14.751 9.991v4.76h-2.262v-4.76H9.991v12.018h2.498v-4.76h2.262v4.76h2.498v-4.76h2.262v4.76h2.498V9.991h-2.498v4.76h-2.262v-4.76z"></path></g><!----></svg>